<?xml version="1.0" encoding="utf-8"?>
<!-- Generator: Adobe Illustrator 17.0.0, SVG Export Plug-In . SVG Version: 6.00 Build 0)  -->
<!DOCTYPE svg PUBLIC "-//W3C//DTD SVG 1.1//EN" "http://www.w3.org/Graphics/SVG/1.1/DTD/svg11.dtd">
<svg version="1.1"
	 id="Layer_1" xmlns:dc="http://purl.org/dc/elements/1.1/" xmlns:cc="http://creativecommons.org/ns#" xmlns:rdf="http://www.w3.org/1999/02/22-rdf-syntax-ns#" xmlns:svg="http://www.w3.org/2000/svg" xmlns:sodipodi="http://sodipodi.sourceforge.net/DTD/sodipodi-0.dtd" xmlns:inkscape="http://www.inkscape.org/namespaces/inkscape" sodipodi:docname="AlgeriePoste.svg" inkscape:version="0.48.4 r9939"
	 xmlns="http://www.w3.org/2000/svg" xmlns:xlink="http://www.w3.org/1999/xlink" x="0px" y="0px" width="1718.34px"
	 height="2050px" viewBox="0 0 1718.34 2050" enable-background="new 0 0 1718.34 2050" xml:space="preserve">
<title  id="title3026">Algerie Poste</title>
<sodipodi:namedview  inkscape:cy="1025" inkscape:cx="859.16998" inkscape:zoom="0.11512195" showgrid="false" guidetolerance="10" gridtolerance="10" objecttolerance="10" pagecolor="#ffffff" bordercolor="#666666" borderopacity="1" id="namedview45" inkscape:current-layer="Layer_1" inkscape:window-maximized="0" inkscape:window-y="134" inkscape:window-x="368" inkscape:window-height="480" inkscape:window-width="640" inkscape:pageshadow="2" inkscape:pageopacity="0">
	</sodipodi:namedview>
<path id="path3" fill="#FECC0B" d="M1300,1132.5c-201.3,131.2-375.4,211.4-522.7,251.9l-0.4-111.6l-213.1,64.79l-0.4,79.8
	C106.3,1423.1,44.5,933,356.7,608.3c-209.1,484.1,503.5,405,809.9,450.1C1247.4,1070.3,1300,1090.8,1300,1132.5z"/>
<polygon id="polygon5" fill="#22297C" points="1502.5,1446 1502.5,1505 1369.79,1545.38 1369.88,1486.35 "/>
<polygon id="polygon7" fill="#22297C" points="807.5,1636.89 807.5,1701.5 776.9,1710.8 671.9,1742.79 671.9,1678.2 776.9,1646.2 
	"/>
<polygon id="polygon9" fill="#22297C" points="650,1691.26 650,1755.86 563.8,1782.16 514.4,1797.16 514.4,1732.56 563.8,1717.56 
	"/>
<path id="path11" fill="#22297C" d="M1562.5,1174.3v119.45c0,22.5-20,50.84-65.47,67.22l-134.53,40.93l-50,15.21v179.78
	c-1.25,35-28.75,52.5-51.23,61.31l-153.16,46.62l-68.71,20.9c0,0-151.47,46.21-152.82,46.5c-30.95,6.76-43.03-8.46-44.67-22.82
	v-122.98l197.5-60v72.14c0,21.67,68.11,16.46,68.71-13.54v-312.4l201.09-61.19v79.2c12.47,23.55,60.39,16.89,60.8-15.21v-82.5
	l132.5-40.3L1562.5,1174.3z"/>
<path id="path13" fill="#22297C" d="M1315,1113.3c300-230,490-666.7-1286.7-830C1581.7-416.7,2121.7,553.3,1315,1113.3z"/>
<path id="path15" fill="#22297C" d="M1039.4,1333.5v137.4c0,14.4-13.51,34.4-38.8,41.1l-158.7,48.3l-34.4,10.5l-30.6,9.3l-105,31.9
	l-21.9,6.7l-86.2,26.2l-49.4,15.1l-6.9,2.1L366.4,1705c-32.3,5.3-63.9-5.9-68.9-30v-115.7l210-63.9v89.6c3.5,14.2,53.1,10.4,55-12.5
	l0.9-155.1l0.4-79.8l213.1-64.79l0.4,111.6l0.5,112.5c1,18.69,52.8,7.2,52.6-15.3l-0.4-84.41l11.9-3.59L1039.4,1333.5z"/>
<g id="g17">
	<path id="path19" fill="#22297C" d="M219.32,1994.34l33.15-97.01h16.11l33.15,97.01h-13.8l-8.92-27.11h-37.57l-8.92,27.11H219.32z
		 M275.39,1956.22l-15.19-45.74l-15.12,45.74H275.39z"/>
	<path id="path21" fill="#22297C" d="M399.17,1994.34h-56.99v-97.01h13.08v85.55h43.92v11.46H399.17z"/>
	<path id="path23" fill="#22297C" d="M471.75,1996.23c-6.95,0-13.32-1.05-19.08-3.13c-5.77-2.08-10.72-5.25-14.86-9.51
		c-4.14-4.3-7.31-9.62-9.51-15.97c-2.2-6.34-3.3-13.63-3.3-21.89c0-7.81,1.11-14.81,3.33-21.01c2.22-6.19,5.4-11.47,9.54-15.87
		c4-4.26,8.94-7.54,14.79-9.83c5.85-2.3,12.26-3.46,19.21-3.46c3.31,0,6.47,0.24,9.51,0.71c3.04,0.49,5.94,1.13,8.72,1.96
		c2.2,0.65,4.66,1.55,7.36,2.71c2.71,1.15,4.9,2.14,6.57,2.96v15.58h-1.12c-1.63-1.44-3.31-2.79-5.05-4.07
		c-1.74-1.28-4.19-2.67-7.36-4.14c-2.64-1.3-5.68-2.39-9.12-3.25c-3.43-0.88-7.13-1.31-11.09-1.31c-9.47,0-17.11,3.52-22.95,10.56
		s-8.75,16.4-8.75,28.08c0,6.52,0.77,12.21,2.31,17.07c1.54,4.87,3.76,9,6.67,12.38c2.82,3.35,6.22,5.9,10.21,7.66
		c3.99,1.76,8.46,2.64,13.44,2.64c3.7,0,7.37-0.25,11.03-0.78c3.65-0.52,6.73-1.3,9.24-2.34v-25.08h-22.71v-11.35h35.66v42.36
		c-1.67,0.73-3.91,1.67-6.7,2.79c-2.8,1.13-5.41,2.02-7.83,2.68c-3.22,0.96-6.12,1.67-8.72,2.15
		C478.59,1996.01,475.45,1996.23,471.75,1996.23z"/>
	<polygon fill="#22297C" points="568.1,1908.79 568.1,1935.37 613.21,1935.37 613.21,1946.83 568.1,1946.83 568.1,1982.87 
		616.51,1982.87 616.51,1994.33 555.03,1994.33 555.03,1897.33 574.17,1897.33 584.09,1876.22 592.17,1881.25 583.92,1897.33 
		616.51,1897.33 616.51,1908.79 	"/>
	<path id="path27" fill="#22297C" d="M721.21,1994.34h-16.97l-31.17-38.57h-14.93v38.57h-13.08v-97.01h25.36
		c5.63,0,10.36,0.29,14.17,0.91c3.81,0.61,7.43,2.02,10.86,4.23c3.43,2.18,6.15,4.98,8.15,8.41c2,3.43,3.01,7.69,3.01,12.77
		c0,7.12-1.83,13.08-5.48,17.85c-3.65,4.77-8.63,8.32-14.93,10.62L721.21,1994.34z M692.94,1924.62c0-2.82-0.51-5.33-1.52-7.53
		c-1.02-2.19-2.58-3.98-4.69-5.37c-1.85-1.21-4.01-2.07-6.47-2.58c-2.47-0.49-5.53-0.74-9.18-0.74h-12.94v36.62h11.49
		c3.74,0,7.11-0.33,10.1-0.99c2.99-0.66,5.55-2,7.66-4.03c1.89-1.84,3.29-4,4.19-6.52C692.49,1930.96,692.94,1928.01,692.94,1924.62
		z"/>
	<path id="path29" fill="#22297C" d="M761.88,1994.34h-13.02v-9.9l0,0v-77.21l0,0l0.05-9.9h13.13l-0.1,9.9l0,0v77.21l0,0
		L761.88,1994.34z"/>
	<path id="path31" fill="#22297C" d="M807.76,1994.34v-97.01h61.48v11.46h-48.41v26.58h45.11v11.46h-45.11v36.04h48.41v11.46h-61.48
		V1994.34z"/>
</g>
<g id="g33">
	<path id="path35" fill="#22297C" d="M1046.64,1921.21c0,4.84-0.93,9.45-2.79,13.83c-1.88,4.37-4.56,8.02-8.07,10.96
		c-2.16,1.81-4.52,3.48-7.09,5.02c-2.58,1.53-5.43,2.83-8.54,3.91c-3.13,1.07-6.5,1.91-10.16,2.52c-3.66,0.61-7.73,0.9-12.27,0.9
		h-16.65v33.99h-31.76v-103.93h49.09c7.29,0,13.59,0.55,18.89,1.64s10.1,2.82,14.39,5.21c4.76,2.6,8.44,6.07,11.04,10.43
		C1045.34,1910.04,1046.64,1915.21,1046.64,1921.21z M1014.04,1921.84c0-2.93-0.86-5.45-2.56-7.57c-1.7-2.12-3.73-3.56-6.11-4.37
		c-3-1.06-5.87-1.68-8.61-1.85c-2.75-0.17-6.47-0.24-11.17-0.24h-4.5v31.13h2.21c3,0,5.83-0.03,8.49-0.08
		c2.66-0.04,4.98-0.21,6.96-0.49c1.7-0.23,3.5-0.68,5.39-1.36c1.89-0.68,3.36-1.44,4.38-2.28c2.15-1.72,3.61-3.51,4.38-5.37
		C1013.65,1927.52,1014.04,1925,1014.04,1921.84z"/>
	<path id="path37" fill="#22297C" d="M1188.79,1940.41c0,16.8-5.47,30.01-16.4,39.64c-10.93,9.64-25.91,14.44-44.92,14.44
		c-19.08,0-34.05-4.86-44.93-14.61c-10.86-9.76-16.3-22.91-16.3-39.47c0-16.71,5.44-29.91,16.3-39.61
		c10.88-9.71,25.85-14.55,44.93-14.55c19.01,0,33.99,4.82,44.92,14.47C1183.32,1910.39,1188.79,1923.61,1188.79,1940.41z
		 M1156,1940.33c0-6.18-0.77-11.46-2.32-15.8c-1.56-4.36-3.64-7.93-6.25-10.72c-2.71-2.83-5.78-4.86-9.21-6.1
		c-3.43-1.23-6.98-1.85-10.65-1.85c-3.91,0-7.45,0.57-10.63,1.71c-3.16,1.14-6.22,3.17-9.16,6.1c-2.62,2.7-4.72,6.29-6.33,10.75
		c-1.62,4.46-2.42,9.79-2.42,15.99c0,6.37,0.76,11.66,2.29,15.88c1.53,4.21,3.63,7.73,6.29,10.57c2.71,2.89,5.8,4.94,9.26,6.18
		c3.46,1.23,7.01,1.85,10.7,1.85c3.73,0,7.35-0.66,10.86-1.99c3.52-1.32,6.54-3.38,9.09-6.17c2.72-3.03,4.81-6.54,6.28-10.57
		C1155.27,1952.12,1156,1946.86,1156,1940.33z"/>
	<path id="path39" fill="#22297C" d="M1256.62,1994.22c-9.69,0-18.19-0.76-25.53-2.3c-7.32-1.53-14.14-3.44-20.42-5.72v-24.71h2.88
		c6.35,4.41,13.34,7.81,20.98,10.2c7.65,2.36,15.06,3.55,22.25,3.55c1.82,0,4.21-0.16,7.19-0.49c2.97-0.33,5.35-0.84,7.17-1.54
		c2.21-0.78,4.08-1.89,5.61-3.31c1.53-1.42,2.29-3.29,2.29-5.62c0-2.61-1.24-4.73-3.74-6.35c-2.49-1.63-5.46-2.81-8.91-3.56
		c-4.32-0.93-8.91-1.82-13.81-2.65c-4.9-0.84-9.47-1.87-13.71-3.08c-9.79-2.84-16.82-6.65-21.05-11.45
		c-4.26-4.79-6.38-10.79-6.38-18.01c0-9.73,5.01-17.6,15.03-23.62c10.02-6.04,22.54-9.04,37.54-9.04c7.53,0,15.02,0.63,22.46,1.88
		c7.44,1.25,14.1,2.96,20,5.1v23.73h-2.8c-4.7-3.31-10.44-6.1-17.2-8.38c-6.77-2.28-13.71-3.42-20.85-3.42
		c-2.77,0-5.26,0.17-7.47,0.49s-4.53,0.95-6.97,1.88c-1.97,0.74-3.69,1.86-5.14,3.32c-1.44,1.46-2.16,3.11-2.16,4.92
		c0,2.65,1.14,4.75,3.44,6.31c2.3,1.56,6.73,2.97,13.29,4.22c4.25,0.8,8.34,1.56,12.27,2.3c3.95,0.74,8.14,1.78,12.62,3.08
		c8.77,2.61,15.29,6.1,19.57,10.5c4.28,4.4,6.42,10.21,6.42,17.42c0,10.33-4.94,18.63-14.81,24.91
		C1286.78,1991.07,1273.43,1994.22,1256.62,1994.22z"/>
	<path id="path41" fill="#22297C" d="M1361.97,1992.33v-84.1h-37.36v-19.82h106.49v19.82h-37.36v84.1H1361.97z"/>
	<path id="path43" fill="#22297C" d="M1454.18,1992.33V1888.4h85.52v19.82h-53.93v18.21h49.68v19.82h-49.68v26.24h53.93v19.82
		h-85.52V1992.33z"/>
</g>
</svg>
