<svg id="Layer_1" xmlns="http://www.w3.org/2000/svg" viewBox="0 0 400 300"><style>.st0{fill:#0d2a75}.st1{fill:#fff}.st2{fill:#feb836}</style><path class="st0" d="M294.8 33H105.2c-8.4 0-15.3 6.4-16.2 14.6h222c-.9-8.2-7.8-14.6-16.2-14.6zM321.6 56.4H78.4c-8.4 0-15.3 6.4-16.2 14.6h275.6c-.9-8.2-7.8-14.6-16.2-14.6zM343.2 80.8H56.9c-9 0-16.4 7.3-16.4 16.4v158.5c0 9 7.3 16.4 16.4 16.4h286.3c9 0 16.3-7.3 16.3-16.4V97.1c0-9-7.3-16.3-16.3-16.3z"/><path class="st1" d="M201.3 249.6c-40.4 0-73.2-32.8-73.2-73.2s32.8-73.2 73.2-73.2c40.5 0 73.2 32.8 73.2 73.2 0 40.5-32.8 73.2-73.2 73.2z"/><title>card</title><path class="st0" d="M251.2 158.3V156c0-10.8-6.3-21-21.4-21H207l-18.5 84.2h35.3c12 0 21.8-9.8 21.8-21.8v-2.6c0-6.9-3.3-13.4-8.8-17.5 8.6-2.4 14.4-10.2 14.4-19zm-19.4 37.4c-1 12.3-15 13.9-27.5 12.5l5.5-25.1h8.3c4.5.1 14.7.5 13.7 12.6zm7.6-36.8c-1 12.3-15 13.9-27.5 12.5l5.5-25.1h8.2c4.6.1 14.8.5 13.8 12.6zM184.9 146.4c-.7 0-1.3-.1-2-.1-12.2 0-21.7 5.9-21.7 14.9 0 7.8 7 14.5 17.1 16l-2.2 10.2c-19.9-1.5-27.4-13.8-27.4-26.2 0-14 14.1-26.3 33.2-26.3 1.3 0 4-.1 5.3 0l-2.3 11.5z"/><path class="st2" d="M184.7 146.4l2.5-11.5H200l-2.5 11.5zM191.1 177.2l-9.3 41.9H169l9.4-41.9zM98.6 147.7H79.4c-5.5 0-10-4.5-10-10v-19.2c0-5.5 4.5-10 10-10h19.3c5.5 0 10 4.5 10 10v19.3c-.1 5.5-4.6 9.9-10.1 9.9z"/></svg>