<svg width="42" height="29" viewBox="0 0 42 29" fill="none" xmlns="http://www.w3.org/2000/svg">
<path d="M0 2.04239C0 0.914404 0.914404 0 2.04239 0H18.4802C19.6081 0 20.5226 0.914404 20.5226 2.04239C20.5226 3.17037 19.6081 4.08479 18.4802 4.08479H2.04239C0.914404 4.08479 0 3.17037 0 2.04239Z" fill="white"/>
<path d="M0 14.3654C0 13.2373 0.914404 12.323 2.04239 12.323H39.0027C40.1307 12.323 41.0452 13.2373 41.0452 14.3654C41.0452 15.4933 40.1307 16.4076 39.0027 16.4076H2.04239C0.914404 16.4076 0 15.4933 0 14.3654Z" fill="white"/>
<path d="M2.04239 24.6465C0.914404 24.6465 0 25.561 0 26.6889C0 27.8168 0.914404 28.7313 2.04239 28.7313H26.6892C27.8171 28.7313 28.7316 27.8168 28.7316 26.6889C28.7316 25.561 27.8171 24.6465 26.6892 24.6465H2.04239Z" fill="white"/>
</svg>
