<svg width="33" height="33" viewBox="0 0 33 33" fill="none" xmlns="http://www.w3.org/2000/svg">
<rect x="1" y="1" width="31" height="31" fill="white"/>
<rect x="1" y="1" width="31" height="31" stroke="white"/>
<path d="M29.574 13.889H28.5V13.8337H16.5V19.167H24.0353C22.936 22.2717 19.982 24.5003 16.5 24.5003C12.082 24.5003 8.49996 20.9183 8.49996 16.5003C8.49996 12.0823 12.082 8.50033 16.5 8.50033C18.5393 8.50033 20.3946 9.26966 21.8073 10.5263L25.5786 6.75499C23.1973 4.53566 20.012 3.16699 16.5 3.16699C9.13663 3.16699 3.16663 9.13699 3.16663 16.5003C3.16663 23.8637 9.13663 29.8337 16.5 29.8337C23.8633 29.8337 29.8333 23.8637 29.8333 16.5003C29.8333 15.6063 29.7413 14.7337 29.574 13.889Z" fill="#FFC107"/>
<path d="M4.70398 10.2943L9.08465 13.507C10.27 10.5723 13.1406 8.50033 16.5 8.50033C18.5393 8.50033 20.3946 9.26966 21.8073 10.5263L25.5786 6.75499C23.1973 4.53566 20.012 3.16699 16.5 3.16699C11.3786 3.16699 6.93731 6.05833 4.70398 10.2943Z" fill="#FF3D00"/>
<path d="M16.5 29.8338C19.944 29.8338 23.0733 28.5158 25.4393 26.3725L21.3127 22.8805C19.974 23.8945 18.31 24.5005 16.5 24.5005C13.032 24.5005 10.0873 22.2891 8.978 19.2031L4.63 22.5531C6.83667 26.8711 11.318 29.8338 16.5 29.8338Z" fill="#4CAF50"/>
<path d="M29.574 13.8883H28.5V13.833H16.5V19.1663H24.0353C23.5073 20.6577 22.548 21.9437 21.3107 22.8803L21.3127 22.879L25.4393 26.371C25.1473 26.6363 29.8333 23.1663 29.8333 16.4997C29.8333 15.6057 29.7413 14.733 29.574 13.8883Z" fill="#1976D2"/>
</svg>
