<?xml version="1.0" standalone="no"?>
<!DOCTYPE svg PUBLIC "-//W3C//DTD SVG 20010904//EN"
 "http://www.w3.org/TR/2001/REC-SVG-20010904/DTD/svg10.dtd">
<svg version="1.0" xmlns="http://www.w3.org/2000/svg"
 width="50.000000pt" height="50.000000pt" viewBox="0 0 50.000000 50.000000"
 preserveAspectRatio="xMidYMid meet">
<metadata>
Created by potrace 1.16, written by Peter Selinger 2001-2019
</metadata>
<g transform="translate(0.000000,50.000000) scale(0.100000,-0.100000)"
fill="#ffffff" stroke="none">
<path d="M192 460 l4 -40 -98 0 -98 0 0 -210 0 -210 155 0 155 0 0 153 0 153
-53 52 c-47 47 -53 56 -49 87 l4 35 74 0 74 0 0 -60 0 -60 60 0 60 0 0 -130 0
-130 -75 0 c-43 0 -75 -4 -75 -10 0 -6 35 -10 85 -10 l85 0 0 153 0 153 -58
57 -58 57 -98 0 -98 0 4 -40z m-22 -120 l0 -60 60 0 60 0 0 -130 0 -130 -135
0 -135 0 0 190 0 190 75 0 75 0 0 -60z"/>
</g>
</svg>
