<svg width="32" height="32" viewBox="0 0 32 32" fill="none" xmlns="http://www.w3.org/2000/svg">
<path d="M12.1379 0C11.5641 0 10.9689 0.199224 10.5496 0.618535C10.1303 1.03784 9.93103 1.6331 9.93103 2.2069V3.31034H0V25.3793H12.3578C12.2143 24.6731 12.1379 23.9338 12.1379 23.1724H2.2069V15.9332C2.85793 16.3084 3.60828 16.5517 4.41379 16.5517H14.3556C14.9735 15.7131 15.7239 14.9628 16.5625 14.3448H4.41379C3.10069 14.3448 2.2069 13.451 2.2069 12.1379V5.51724H26.4828V12.1379C26.4828 12.3145 26.4728 12.4791 26.4397 12.6336C27.2341 12.8764 27.9834 13.2081 28.6897 13.6164V3.31034H18.7586V2.2069C18.7586 1.6331 18.5594 1.03784 18.1401 0.618535C17.7208 0.199224 17.1255 0 16.5517 0H12.1379ZM12.1379 2.2069H16.5517V3.31034H12.1379V2.2069ZM6.62069 9.93103V13.2414H8.82759V9.93103H6.62069ZM19.8621 9.93103V12.6466C20.2152 12.5362 20.5757 12.4422 20.944 12.3664C21.3122 12.2905 21.6883 12.2326 22.069 12.194V9.93103H19.8621ZM23.1724 14.3448C18.3062 14.3448 14.3448 18.3062 14.3448 23.1724C14.3448 28.0386 18.3062 32 23.1724 32C28.0386 32 32 28.0386 32 23.1724C32 18.3062 28.0386 14.3448 23.1724 14.3448ZM23.1724 16.5517C26.8359 16.5517 29.7931 19.509 29.7931 23.1724C29.7931 26.8359 26.8359 29.7931 23.1724 29.7931C19.509 29.7931 16.5517 26.8359 16.5517 23.1724C16.5517 19.509 19.509 16.5517 23.1724 16.5517ZM22.069 17.6552V24.2759H27.5862V22.069H24.2759V17.6552H22.069Z" fill="white"/>
</svg>
