<svg width="29" height="29" viewBox="0 0 29 29" fill="none" xmlns="http://www.w3.org/2000/svg">
<path d="M0 0H29V29H0V0Z" fill="white" fill-opacity="0.01"/>
<path d="M2.41634 8.45825L1.87596 7.37746C1.46659 7.58215 1.20801 8.00059 1.20801 8.45825H2.41634ZM14.4997 2.41658L15.04 1.33582C14.6999 1.16573 14.2995 1.16573 13.9593 1.33582L14.4997 2.41658ZM26.583 8.45825H27.7913C27.7913 8.00059 27.5328 7.58215 27.1234 7.37746L26.583 8.45825ZM26.583 20.5416L27.1234 21.6224C27.5328 21.4177 27.7913 20.9992 27.7913 20.5416H26.583ZM14.4997 26.5833L13.9593 27.664C14.2995 27.8341 14.6999 27.8341 15.04 27.664L14.4997 26.5833ZM2.41634 20.5416H1.20801C1.20801 20.9992 1.46659 21.4177 1.87596 21.6224L2.41634 20.5416ZM2.95673 9.53904L15.04 3.49735L13.9593 1.33582L1.87596 7.37746L2.95673 9.53904ZM25.3747 8.45825V20.5416H27.7913V8.45825H25.3747ZM26.0426 19.4608L13.9593 25.5025L15.04 27.664L27.1234 21.6224L26.0426 19.4608ZM15.04 25.5025L2.95673 19.4608L1.87596 21.6224L13.9593 27.664L15.04 25.5025ZM3.62467 20.5416V8.45825H1.20801V20.5416H3.62467ZM27.1234 7.37746L15.04 1.33582L13.9593 3.49735L26.0426 9.53904L27.1234 7.37746Z" fill="white"/>
<path d="M2.41699 8.45825L14.5003 14.4999" stroke="white" stroke-width="2" stroke-linecap="round" stroke-linejoin="round"/>
<path d="M14.5 26.5833V14.5" stroke="white" stroke-width="2" stroke-linecap="round" stroke-linejoin="round"/>
<path d="M26.5833 8.45825L14.5 14.4999" stroke="white" stroke-width="2" stroke-linecap="round" stroke-linejoin="round"/>
<path d="M21.0823 6.51815C21.6792 6.21969 21.9211 5.49386 21.6227 4.89697C21.3243 4.30008 20.5984 4.05815 20.0016 4.35659L21.0823 6.51815ZM7.91823 10.3982C7.32132 10.6967 7.07941 11.4225 7.37781 12.0194C7.67626 12.6163 8.40211 12.8582 8.99897 12.5598L7.91823 10.3982ZM20.0016 4.35659L7.91823 10.3982L8.99897 12.5598L21.0823 6.51815L20.0016 4.35659Z" fill="white"/>
</svg>
