<svg width="26" height="26" viewBox="0 0 26 26" fill="none" xmlns="http://www.w3.org/2000/svg">
<path fill-rule="evenodd" clip-rule="evenodd" d="M3.60009 0.00011802L3.49943 5.99323e-05C3.04254 -0.000362439 2.64868 -0.000726677 2.29976 0.0804268C1.20283 0.335535 0.346359 1.16524 0.0830212 2.2279C-0.000750118 2.56591 -0.000374131 2.94746 6.18656e-05 3.39008L0.000121827 3.48759V8.13755L6.18656e-05 8.23506C-0.000374131 8.67768 -0.000750118 9.05925 0.0830212 9.39724C0.346359 10.4599 1.20283 11.2896 2.29976 11.5447C2.64868 11.6259 3.04254 11.6255 3.49943 11.6251L3.60009 11.625H8.40005L8.50071 11.6251C8.95761 11.6255 9.35149 11.6259 9.70038 11.5447C10.7973 11.2896 11.6538 10.4599 11.9171 9.39724C12.0009 9.05925 12.0005 8.67768 12.0001 8.23506L12 8.13755V3.48759L12.0001 3.39008C12.0005 2.94746 12.0009 2.56591 11.9171 2.2279C11.6538 1.16524 10.7973 0.335535 9.70038 0.0804268C9.35149 -0.000726677 8.95761 -0.000362439 8.50071 5.99323e-05L8.40005 0.00011802H3.60009ZM2.76666 1.96438C2.85274 1.94434 2.98454 1.9376 3.60009 1.9376H8.40005C9.01563 1.9376 9.14743 1.94434 9.23349 1.96438C9.59914 2.04941 9.88462 2.32597 9.97242 2.6802C9.99308 2.76359 10 2.89127 10 3.48759V8.13755C10 8.73389 9.99308 8.86157 9.97242 8.94494C9.88462 9.29917 9.59914 9.57573 9.23349 9.66078C9.14743 9.68079 9.01563 9.68754 8.40005 9.68754H3.60009C2.98454 9.68754 2.85274 9.68079 2.76666 9.66078C2.401 9.57573 2.11552 9.29917 2.02775 8.94494C2.00707 8.86157 2.00011 8.73389 2.00011 8.13755V3.48759C2.00011 2.89127 2.00707 2.76359 2.02775 2.6802C2.11552 2.32597 2.401 2.04941 2.76666 1.96438ZM17.6 0.00011802L17.4993 5.99323e-05C17.0424 -0.000362439 16.6486 -0.000726677 16.2996 0.0804268C15.2027 0.335535 14.3462 1.16524 14.0829 2.2279C13.9991 2.56591 13.9995 2.94746 13.9999 3.39008L14 3.48759V8.13755L13.9999 8.23506C13.9995 8.67768 13.9991 9.05925 14.0829 9.39724C14.3462 10.4599 15.2027 11.2896 16.2996 11.5447C16.6486 11.6259 17.0424 11.6255 17.4993 11.6251L17.6 11.625H22.3999L22.5005 11.6251C22.9575 11.6255 23.3513 11.6259 23.7003 11.5447C24.7971 11.2896 25.6537 10.4599 25.9171 9.39724C26.0007 9.05925 26.0005 8.67768 25.9999 8.23506V8.13755V3.48759V3.39008C26.0005 2.94746 26.0007 2.56591 25.9171 2.2279C25.6537 1.16524 24.7971 0.335535 23.7003 0.0804268C23.3513 -0.000726677 22.9575 -0.000362439 22.5005 5.99323e-05L22.3999 0.00011802H17.6ZM16.7665 1.96438C16.8526 1.94434 16.9844 1.9376 17.6 1.9376H22.3999C23.0155 1.9376 23.1473 1.94434 23.2333 1.96438C23.5989 2.04941 23.8845 2.32597 23.9723 2.6802C23.9929 2.76359 23.9999 2.89127 23.9999 3.48759V8.13755C23.9999 8.73389 23.9929 8.86157 23.9723 8.94494C23.8845 9.29917 23.5989 9.57573 23.2333 9.66078C23.1473 9.68079 23.0155 9.68754 22.3999 9.68754H17.6C16.9844 9.68754 16.8526 9.68079 16.7665 9.66078C16.4009 9.57573 16.1154 9.29917 16.0276 8.94494C16.0069 8.86157 16 8.73389 16 8.13755V3.48759C16 2.89127 16.0069 2.76359 16.0276 2.6802C16.1154 2.32597 16.4009 2.04941 16.7665 1.96438ZM3.49943 13.5624L3.60009 13.5625H8.40005L8.50071 13.5624C8.95761 13.562 9.35149 13.5617 9.70038 13.6428C10.7973 13.8979 11.6538 14.7276 11.9171 15.7903C12.0009 16.1283 12.0005 16.5098 12.0001 16.9525L12 17.05V21.6999L12.0001 21.7974C12.0005 22.2401 12.0009 22.6216 11.9171 22.9597C11.6538 24.0222 10.7973 24.852 9.70038 25.1072C9.35149 25.1882 8.95761 25.188 8.50071 25.1874H8.40005H3.60009H3.49943C3.04254 25.188 2.64868 25.1882 2.29976 25.1072C1.20283 24.852 0.346359 24.0222 0.0830212 22.9597C-0.000750118 22.6216 -0.000374131 22.2401 6.18656e-05 21.7974L0.000121827 21.6999V17.05L6.18656e-05 16.9525C-0.000374131 16.5098 -0.000750118 16.1283 0.0830212 15.7903C0.346359 14.7276 1.20283 13.8979 2.29976 13.6428C2.64868 13.5617 3.04254 13.562 3.49943 13.5624ZM3.60009 15.5C2.98454 15.5 2.85274 15.5067 2.76666 15.5268C2.401 15.6118 2.11552 15.8884 2.02775 16.2426C2.00707 16.326 2.00011 16.4537 2.00011 17.05V21.6999C2.00011 22.2963 2.00707 22.424 2.02775 22.5073C2.11552 22.8615 2.401 23.1381 2.76666 23.2232C2.85274 23.2431 2.98454 23.2499 3.60009 23.2499H8.40005C9.01563 23.2499 9.14743 23.2431 9.23349 23.2232C9.59914 23.1381 9.88462 22.8615 9.97242 22.5073C9.99308 22.424 10 22.2963 10 21.6999V17.05C10 16.4537 9.99308 16.326 9.97242 16.2426C9.88462 15.8884 9.59914 15.6118 9.23349 15.5268C9.14743 15.5067 9.01563 15.5 8.40005 15.5H3.60009ZM17.6 13.5625L17.4993 13.5624C17.0424 13.562 16.6486 13.5617 16.2996 13.6428C15.2027 13.8979 14.3462 14.7276 14.0829 15.7903C13.9991 16.1283 13.9995 16.5098 13.9999 16.9525L14 17.05V21.6999L13.9999 21.7974C13.9995 22.2401 13.9991 22.6216 14.0829 22.9597C14.3462 24.0222 15.2027 24.852 16.2996 25.1072C16.6486 25.1882 17.0424 25.188 17.4993 25.1874H17.6H22.3999H22.5005C22.9575 25.188 23.3513 25.1882 23.7003 25.1072C24.7971 24.852 25.6537 24.0222 25.9171 22.9597C26.0007 22.6216 26.0005 22.2401 25.9999 21.7974V21.6999V17.05V16.9525C26.0005 16.5098 26.0007 16.1283 25.9171 15.7903C25.6537 14.7276 24.7971 13.8979 23.7003 13.6428C23.3513 13.5617 22.9575 13.562 22.5005 13.5624L22.3999 13.5625H17.6ZM16.7665 15.5268C16.8526 15.5067 16.9844 15.5 17.6 15.5H22.3999C23.0155 15.5 23.1473 15.5067 23.2333 15.5268C23.5989 15.6118 23.8845 15.8884 23.9723 16.2426C23.9929 16.326 23.9999 16.4537 23.9999 17.05V21.6999C23.9999 22.2963 23.9929 22.424 23.9723 22.5073C23.8845 22.8615 23.5989 23.1381 23.2333 23.2232C23.1473 23.2431 23.0155 23.2499 22.3999 23.2499H17.6C16.9844 23.2499 16.8526 23.2431 16.7665 23.2232C16.4009 23.1381 16.1154 22.8615 16.0276 22.5073C16.0069 22.424 16 22.2963 16 21.6999V17.05C16 16.4537 16.0069 16.326 16.0276 16.2426C16.1154 15.8884 16.4009 15.6118 16.7665 15.5268Z" fill="white"/>
</svg>
