<svg width="29" height="27" viewBox="0 0 29 27" fill="none" xmlns="http://www.w3.org/2000/svg">
<path d="M2.11704 5.35039C2.6819 2.80851 4.93642 1 7.5403 1H20.8495C23.4534 1 25.708 2.80851 26.2728 5.35039L26.4768 6.26899C27.5353 11.0315 27.5353 15.9685 26.4768 20.731L26.2728 21.6496C25.708 24.1915 23.4534 26 20.8495 26H7.5403C4.93642 26 2.6819 24.1915 2.11704 21.6496L1.9129 20.731C0.854554 15.9685 0.854554 11.0315 1.9129 6.26899L2.11704 5.35039Z" stroke="white" stroke-width="2" stroke-linecap="round" stroke-linejoin="round"/>
<path d="M1 14.8887H9.80256C9.80256 16.2776 11.1539 19.0553 14.5322 19.0553C17.9107 19.0553 19.2619 16.2776 19.2619 14.8887H27.3889" stroke="white" stroke-width="2" stroke-linejoin="round"/>
</svg>
