<svg width="418" height="242" viewBox="0 0 418 242" fill="none" xmlns="http://www.w3.org/2000/svg">
<rect y="8" width="418" height="234" rx="21" fill="url(#paint0_linear_243_1063)"/>
<mask id="mask0_243_1063" style="mask-type:alpha" maskUnits="userSpaceOnUse" x="13" y="0" width="360" height="220">
<rect x="13" width="360" height="220" rx="21" fill="url(#paint1_linear_243_1063)"/>
</mask>
<g mask="url(#mask0_243_1063)">
<path d="M168 66.2236C102.634 -0.776367 37 17.2236 0 31.2236V224.224L369 234.224L387 191.224C258 206.224 248 148.224 168 66.2236Z" fill="url(#paint2_linear_243_1063)" fill-opacity="0.15"/>
</g>
<path d="M59.328 62.224C57.9947 62.224 56.9333 61.84 56.144 61.072C55.3547 60.2933 54.96 59.1627 54.96 57.68V55.12C54.96 53.6373 55.3547 52.512 56.144 51.744C56.9333 50.9653 57.9947 50.576 59.328 50.576C60.6507 50.576 61.664 50.944 62.368 51.68C63.0827 52.416 63.44 53.424 63.44 54.704V54.784H62.112V54.656C62.112 53.8133 61.8827 53.1253 61.424 52.592C60.976 52.048 60.2773 51.776 59.328 51.776C58.3787 51.776 57.6373 52.0693 57.104 52.656C56.5707 53.232 56.304 54.0427 56.304 55.088V57.712C56.304 58.7573 56.5707 59.5733 57.104 60.16C57.6373 60.736 58.3787 61.024 59.328 61.024C60.2773 61.024 60.976 60.7573 61.424 60.224C61.8827 59.68 62.112 58.9867 62.112 58.144V57.888H63.44V58.096C63.44 59.376 63.0827 60.384 62.368 61.12C61.664 61.856 60.6507 62.224 59.328 62.224ZM65.5936 62V54.176H66.8256V55.136H67.0496C67.1883 54.7947 67.4016 54.544 67.6896 54.384C67.9776 54.224 68.3563 54.144 68.8256 54.144H69.7536V55.296H68.7456C68.1803 55.296 67.7216 55.456 67.3696 55.776C67.0283 56.0853 66.8576 56.5707 66.8576 57.232V62H65.5936ZM74.9276 62.224C74.1383 62.224 73.445 62.0587 72.8476 61.728C72.2503 61.3867 71.7863 60.912 71.4556 60.304C71.125 59.696 70.9596 58.992 70.9596 58.192V58C70.9596 57.1893 71.125 56.48 71.4556 55.872C71.7863 55.264 72.245 54.7947 72.8316 54.464C73.4183 54.1227 74.0903 53.952 74.8476 53.952C75.5836 53.952 76.2343 54.112 76.7996 54.432C77.365 54.7413 77.8076 55.1893 78.1276 55.776C78.4476 56.3627 78.6076 57.0507 78.6076 57.84V58.416H72.2236C72.2556 59.2587 72.5276 59.92 73.0396 60.4C73.5516 60.8693 74.1916 61.104 74.9596 61.104C75.6316 61.104 76.149 60.9493 76.5116 60.64C76.8743 60.3307 77.1516 59.9627 77.3436 59.536L78.4316 60.064C78.2716 60.3947 78.0476 60.7253 77.7596 61.056C77.4823 61.3867 77.1143 61.664 76.6556 61.888C76.2076 62.112 75.6316 62.224 74.9276 62.224ZM72.2396 57.376H77.3276C77.285 56.6507 77.0343 56.0853 76.5756 55.68C76.1276 55.2747 75.5516 55.072 74.8476 55.072C74.133 55.072 73.5463 55.2747 73.0876 55.68C72.629 56.0853 72.3463 56.6507 72.2396 57.376ZM84.1244 62.224C83.4524 62.224 82.8337 62.064 82.2684 61.744C81.703 61.424 81.255 60.96 80.9244 60.352C80.5937 59.744 80.4284 59.024 80.4284 58.192V57.984C80.4284 57.152 80.5937 56.4373 80.9244 55.84C81.255 55.232 81.6977 54.768 82.2524 54.448C82.8177 54.1173 83.4417 53.952 84.1244 53.952C84.6684 53.952 85.127 54.0267 85.5004 54.176C85.8844 54.3147 86.1937 54.496 86.4284 54.72C86.663 54.9333 86.8444 55.1627 86.9724 55.408H87.1964V50.8H88.4604V62H87.2284V60.704H87.0044C86.791 61.0987 86.4604 61.4507 86.0124 61.76C85.5644 62.0693 84.935 62.224 84.1244 62.224ZM84.4604 61.104C85.271 61.104 85.927 60.848 86.4284 60.336C86.9404 59.8133 87.1964 59.088 87.1964 58.16V58.016C87.1964 57.088 86.9404 56.368 86.4284 55.856C85.927 55.3333 85.271 55.072 84.4604 55.072C83.6604 55.072 82.999 55.3333 82.4764 55.856C81.9644 56.368 81.7084 57.088 81.7084 58.016V58.16C81.7084 59.088 81.9644 59.8133 82.4764 60.336C82.999 60.848 83.6604 61.104 84.4604 61.104ZM91.1093 62V54.176H92.3733V62H91.1093ZM91.7493 52.96C91.4719 52.96 91.2373 52.8693 91.0453 52.688C90.8639 52.5067 90.7733 52.2773 90.7733 52C90.7733 51.712 90.8639 51.4773 91.0453 51.296C91.2373 51.1147 91.4719 51.024 91.7493 51.024C92.0266 51.024 92.2559 51.1147 92.4373 51.296C92.6186 51.4773 92.7093 51.712 92.7093 52C92.7093 52.2773 92.6186 52.5067 92.4373 52.688C92.2559 52.8693 92.0266 52.96 91.7493 52.96ZM97.9111 62C97.4631 62 97.1165 61.8773 96.8711 61.632C96.6365 61.3867 96.5191 61.0507 96.5191 60.624V55.28H94.1671V54.176H96.5191V51.392H97.7831V54.176H100.343V55.28H97.7831V60.432C97.7831 60.752 97.9378 60.912 98.2471 60.912H99.9911V62H97.9111Z" fill="white"/>
<circle cx="316.678" cy="54.6976" r="19.6976" fill="white" fill-opacity="0.29"/>
<circle cx="292.698" cy="54.6976" r="19.6976" fill="white" fill-opacity="0.68"/>
<path d="M61.146 143V140.426H54.576V138.698L59.868 130.4H62.604V139.112H64.764V140.426H62.604V143H61.146ZM56.034 139.112H61.146V131.282H60.894L56.034 138.896V139.112ZM71.748 143.252C70.776 143.252 69.93 143.108 69.21 142.82C68.502 142.52 67.95 142.106 67.554 141.578C67.17 141.038 66.978 140.408 66.978 139.688V139.49C66.978 138.866 67.11 138.35 67.374 137.942C67.638 137.534 67.956 137.222 68.328 137.006C68.712 136.778 69.066 136.634 69.39 136.574V136.34C69.066 136.244 68.73 136.088 68.382 135.872C68.046 135.656 67.764 135.362 67.536 134.99C67.32 134.618 67.212 134.162 67.212 133.622V133.424C67.212 132.74 67.404 132.158 67.788 131.678C68.184 131.186 68.724 130.808 69.408 130.544C70.092 130.28 70.872 130.148 71.748 130.148C72.636 130.148 73.416 130.28 74.088 130.544C74.772 130.808 75.306 131.186 75.69 131.678C76.086 132.158 76.284 132.74 76.284 133.424V133.622C76.284 134.162 76.176 134.618 75.96 134.99C75.744 135.362 75.468 135.656 75.132 135.872C74.796 136.088 74.46 136.244 74.124 136.34V136.574C74.46 136.634 74.814 136.778 75.186 137.006C75.558 137.222 75.87 137.534 76.122 137.942C76.386 138.35 76.518 138.866 76.518 139.49V139.688C76.518 140.408 76.326 141.038 75.942 141.578C75.558 142.106 75.006 142.52 74.286 142.82C73.578 143.108 72.732 143.252 71.748 143.252ZM71.748 141.938C72.768 141.938 73.572 141.74 74.16 141.344C74.76 140.948 75.06 140.372 75.06 139.616V139.472C75.06 138.716 74.766 138.14 74.178 137.744C73.59 137.348 72.78 137.15 71.748 137.15C70.728 137.15 69.924 137.348 69.336 137.744C68.748 138.14 68.454 138.716 68.454 139.472V139.616C68.454 140.372 68.748 140.948 69.336 141.344C69.936 141.74 70.74 141.938 71.748 141.938ZM71.748 135.836C72.708 135.836 73.458 135.656 73.998 135.296C74.55 134.924 74.826 134.402 74.826 133.73V133.586C74.826 132.902 74.55 132.38 73.998 132.02C73.446 131.648 72.696 131.462 71.748 131.462C70.8 131.462 70.05 131.648 69.498 132.02C68.946 132.38 68.67 132.902 68.67 133.586V133.73C68.67 134.402 68.946 134.924 69.498 135.296C70.05 135.656 70.8 135.836 71.748 135.836ZM84.0248 143.252C82.5968 143.252 81.4568 142.832 80.6048 141.992C79.7648 141.14 79.3448 139.868 79.3448 138.176V135.224C79.3448 133.544 79.7648 132.278 80.6048 131.426C81.4568 130.574 82.5968 130.148 84.0248 130.148C85.4648 130.148 86.6048 130.574 87.4448 131.426C88.2968 132.278 88.7228 133.544 88.7228 135.224V138.176C88.7228 139.868 88.2968 141.14 87.4448 141.992C86.6048 142.832 85.4648 143.252 84.0248 143.252ZM84.0248 141.938C85.1048 141.938 85.9148 141.614 86.4548 140.966C86.9948 140.318 87.2648 139.412 87.2648 138.248V135.134C87.2648 133.97 86.9888 133.07 86.4368 132.434C85.8848 131.786 85.0808 131.462 84.0248 131.462C82.9688 131.462 82.1648 131.786 81.6128 132.434C81.0728 133.082 80.8028 133.982 80.8028 135.134V138.248C80.8028 139.424 81.0728 140.336 81.6128 140.984C82.1528 141.62 82.9568 141.938 84.0248 141.938ZM91.6501 143V141.686C91.6501 140.786 91.8061 140.066 92.1181 139.526C92.4421 138.986 92.8861 138.554 93.4501 138.23C94.0261 137.894 94.7101 137.606 95.5021 137.366L96.4921 137.06C97.0321 136.892 97.5061 136.688 97.9141 136.448C98.3221 136.196 98.6401 135.884 98.8681 135.512C99.0961 135.128 99.2101 134.66 99.2101 134.108V134.036C99.2101 133.244 98.9341 132.62 98.3821 132.164C97.8301 131.696 97.1221 131.462 96.2581 131.462C95.3461 131.462 94.6021 131.708 94.0261 132.2C93.4501 132.68 93.1621 133.412 93.1621 134.396V134.648H91.7221V134.414C91.7221 133.502 91.9201 132.728 92.3161 132.092C92.7121 131.456 93.2521 130.976 93.9361 130.652C94.6201 130.316 95.3941 130.148 96.2581 130.148C97.1221 130.148 97.8841 130.31 98.5441 130.634C99.2161 130.958 99.7381 131.408 100.11 131.984C100.482 132.56 100.668 133.232 100.668 134V134.162C100.668 134.978 100.506 135.656 100.182 136.196C99.8581 136.724 99.4081 137.156 98.8321 137.492C98.2681 137.828 97.6021 138.116 96.8341 138.356L95.8621 138.662C95.2501 138.854 94.7401 139.058 94.3321 139.274C93.9361 139.478 93.6361 139.742 93.4321 140.066C93.2281 140.39 93.1261 140.828 93.1261 141.38V141.686H100.56V143H91.6501ZM119.965 143V141.686C119.965 140.786 120.121 140.066 120.433 139.526C120.757 138.986 121.201 138.554 121.765 138.23C122.341 137.894 123.025 137.606 123.817 137.366L124.807 137.06C125.347 136.892 125.821 136.688 126.229 136.448C126.637 136.196 126.955 135.884 127.183 135.512C127.411 135.128 127.525 134.66 127.525 134.108V134.036C127.525 133.244 127.249 132.62 126.697 132.164C126.145 131.696 125.437 131.462 124.573 131.462C123.661 131.462 122.917 131.708 122.341 132.2C121.765 132.68 121.477 133.412 121.477 134.396V134.648H120.037V134.414C120.037 133.502 120.235 132.728 120.631 132.092C121.027 131.456 121.567 130.976 122.251 130.652C122.935 130.316 123.709 130.148 124.573 130.148C125.437 130.148 126.199 130.31 126.859 130.634C127.531 130.958 128.053 131.408 128.425 131.984C128.797 132.56 128.983 133.232 128.983 134V134.162C128.983 134.978 128.821 135.656 128.497 136.196C128.173 136.724 127.723 137.156 127.147 137.492C126.583 137.828 125.917 138.116 125.149 138.356L124.177 138.662C123.565 138.854 123.055 139.058 122.647 139.274C122.251 139.478 121.951 139.742 121.747 140.066C121.543 140.39 121.441 140.828 121.441 141.38V141.686H128.875V143H119.965ZM131.711 143V141.686C131.711 140.786 131.867 140.066 132.179 139.526C132.503 138.986 132.947 138.554 133.511 138.23C134.087 137.894 134.771 137.606 135.563 137.366L136.553 137.06C137.093 136.892 137.567 136.688 137.975 136.448C138.383 136.196 138.701 135.884 138.929 135.512C139.157 135.128 139.271 134.66 139.271 134.108V134.036C139.271 133.244 138.995 132.62 138.443 132.164C137.891 131.696 137.183 131.462 136.319 131.462C135.407 131.462 134.663 131.708 134.087 132.2C133.511 132.68 133.223 133.412 133.223 134.396V134.648H131.783V134.414C131.783 133.502 131.981 132.728 132.377 132.092C132.773 131.456 133.313 130.976 133.997 130.652C134.681 130.316 135.455 130.148 136.319 130.148C137.183 130.148 137.945 130.31 138.605 130.634C139.277 130.958 139.799 131.408 140.171 131.984C140.543 132.56 140.729 133.232 140.729 134V134.162C140.729 134.978 140.567 135.656 140.243 136.196C139.919 136.724 139.469 137.156 138.893 137.492C138.329 137.828 137.663 138.116 136.895 138.356L135.923 138.662C135.311 138.854 134.801 139.058 134.393 139.274C133.997 139.478 133.697 139.742 133.493 140.066C133.289 140.39 133.187 140.828 133.187 141.38V141.686H140.621V143H131.711ZM147.128 143V131.372H146.858L144.41 135.854H142.826L145.832 130.4H148.586V143H147.128ZM156.362 143.252C155.438 143.252 154.64 143.078 153.968 142.73C153.296 142.37 152.774 141.878 152.402 141.254C152.03 140.618 151.844 139.886 151.844 139.058V138.842H153.302V139.004C153.302 139.952 153.578 140.678 154.13 141.182C154.682 141.686 155.414 141.938 156.326 141.938C157.286 141.938 158.036 141.668 158.576 141.128C159.116 140.588 159.386 139.85 159.386 138.914V138.752C159.386 137.852 159.122 137.138 158.594 136.61C158.078 136.07 157.406 135.8 156.578 135.8C156.098 135.8 155.702 135.878 155.39 136.034C155.078 136.178 154.832 136.364 154.652 136.592C154.472 136.808 154.322 137.018 154.202 137.222H152.222V130.4H160.502V131.714H153.68V136.07H153.932C154.064 135.83 154.244 135.596 154.472 135.368C154.712 135.14 155.03 134.948 155.426 134.792C155.822 134.636 156.314 134.558 156.902 134.558C157.634 134.558 158.294 134.726 158.882 135.062C159.482 135.398 159.956 135.878 160.304 136.502C160.664 137.126 160.844 137.87 160.844 138.734V138.932C160.844 139.784 160.664 140.534 160.304 141.182C159.944 141.83 159.428 142.34 158.756 142.712C158.084 143.072 157.286 143.252 156.362 143.252ZM183.796 143V131.372H183.526L181.078 135.854H179.494L182.5 130.4H185.254V143H183.796ZM192.22 143V131.372H191.95L189.502 135.854H187.918L190.924 130.4H193.678V143H192.22ZM201.615 143.252C200.643 143.252 199.797 143.108 199.077 142.82C198.369 142.52 197.817 142.106 197.421 141.578C197.037 141.038 196.845 140.408 196.845 139.688V139.49C196.845 138.866 196.977 138.35 197.241 137.942C197.505 137.534 197.823 137.222 198.195 137.006C198.579 136.778 198.933 136.634 199.257 136.574V136.34C198.933 136.244 198.597 136.088 198.249 135.872C197.913 135.656 197.631 135.362 197.403 134.99C197.187 134.618 197.079 134.162 197.079 133.622V133.424C197.079 132.74 197.271 132.158 197.655 131.678C198.051 131.186 198.591 130.808 199.275 130.544C199.959 130.28 200.739 130.148 201.615 130.148C202.503 130.148 203.283 130.28 203.955 130.544C204.639 130.808 205.173 131.186 205.557 131.678C205.953 132.158 206.151 132.74 206.151 133.424V133.622C206.151 134.162 206.043 134.618 205.827 134.99C205.611 135.362 205.335 135.656 204.999 135.872C204.663 136.088 204.327 136.244 203.991 136.34V136.574C204.327 136.634 204.681 136.778 205.053 137.006C205.425 137.222 205.737 137.534 205.989 137.942C206.253 138.35 206.385 138.866 206.385 139.49V139.688C206.385 140.408 206.193 141.038 205.809 141.578C205.425 142.106 204.873 142.52 204.153 142.82C203.445 143.108 202.599 143.252 201.615 143.252ZM201.615 141.938C202.635 141.938 203.439 141.74 204.027 141.344C204.627 140.948 204.927 140.372 204.927 139.616V139.472C204.927 138.716 204.633 138.14 204.045 137.744C203.457 137.348 202.647 137.15 201.615 137.15C200.595 137.15 199.791 137.348 199.203 137.744C198.615 138.14 198.321 138.716 198.321 139.472V139.616C198.321 140.372 198.615 140.948 199.203 141.344C199.803 141.74 200.607 141.938 201.615 141.938ZM201.615 135.836C202.575 135.836 203.325 135.656 203.865 135.296C204.417 134.924 204.693 134.402 204.693 133.73V133.586C204.693 132.902 204.417 132.38 203.865 132.02C203.313 131.648 202.563 131.462 201.615 131.462C200.667 131.462 199.917 131.648 199.365 132.02C198.813 132.38 198.537 132.902 198.537 133.586V133.73C198.537 134.402 198.813 134.924 199.365 135.296C199.917 135.656 200.667 135.836 201.615 135.836ZM213.586 143.252C212.698 143.252 211.9 143.084 211.192 142.748C210.496 142.412 209.944 141.926 209.536 141.29C209.14 140.654 208.942 139.886 208.942 138.986V138.644H210.4V138.968C210.4 139.892 210.694 140.618 211.282 141.146C211.87 141.674 212.638 141.938 213.586 141.938C214.546 141.938 215.29 141.692 215.818 141.2C216.358 140.696 216.628 140.066 216.628 139.31V139.166C216.628 138.614 216.496 138.17 216.232 137.834C215.968 137.486 215.608 137.234 215.152 137.078C214.708 136.91 214.216 136.826 213.676 136.826H211.624V135.008L216.43 131.93V131.714H209.248V130.4H217.978V132.434L213.28 135.458V135.674H214.18C214.888 135.674 215.536 135.806 216.124 136.07C216.724 136.322 217.198 136.706 217.546 137.222C217.906 137.726 218.086 138.362 218.086 139.13V139.328C218.086 140.12 217.9 140.81 217.528 141.398C217.156 141.986 216.634 142.442 215.962 142.766C215.29 143.09 214.498 143.252 213.586 143.252ZM243.61 143V140.426H237.04V138.698L242.332 130.4H245.068V139.112H247.228V140.426H245.068V143H243.61ZM238.498 139.112H243.61V131.282H243.358L238.498 138.896V139.112ZM249.568 143V141.686C249.568 140.786 249.724 140.066 250.036 139.526C250.36 138.986 250.804 138.554 251.368 138.23C251.944 137.894 252.628 137.606 253.42 137.366L254.41 137.06C254.95 136.892 255.424 136.688 255.832 136.448C256.24 136.196 256.558 135.884 256.786 135.512C257.014 135.128 257.128 134.66 257.128 134.108V134.036C257.128 133.244 256.852 132.62 256.3 132.164C255.748 131.696 255.04 131.462 254.176 131.462C253.264 131.462 252.52 131.708 251.944 132.2C251.368 132.68 251.08 133.412 251.08 134.396V134.648H249.64V134.414C249.64 133.502 249.838 132.728 250.234 132.092C250.63 131.456 251.17 130.976 251.854 130.652C252.538 130.316 253.312 130.148 254.176 130.148C255.04 130.148 255.802 130.31 256.462 130.634C257.134 130.958 257.656 131.408 258.028 131.984C258.4 132.56 258.586 133.232 258.586 134V134.162C258.586 134.978 258.424 135.656 258.1 136.196C257.776 136.724 257.326 137.156 256.75 137.492C256.186 137.828 255.52 138.116 254.752 138.356L253.78 138.662C253.168 138.854 252.658 139.058 252.25 139.274C251.854 139.478 251.554 139.742 251.35 140.066C251.146 140.39 251.044 140.828 251.044 141.38V141.686H258.478V143H249.568ZM265.958 143.252C264.986 143.252 264.14 143.108 263.42 142.82C262.712 142.52 262.16 142.106 261.764 141.578C261.38 141.038 261.188 140.408 261.188 139.688V139.49C261.188 138.866 261.32 138.35 261.584 137.942C261.848 137.534 262.166 137.222 262.538 137.006C262.922 136.778 263.276 136.634 263.6 136.574V136.34C263.276 136.244 262.94 136.088 262.592 135.872C262.256 135.656 261.974 135.362 261.746 134.99C261.53 134.618 261.422 134.162 261.422 133.622V133.424C261.422 132.74 261.614 132.158 261.998 131.678C262.394 131.186 262.934 130.808 263.618 130.544C264.302 130.28 265.082 130.148 265.958 130.148C266.846 130.148 267.626 130.28 268.298 130.544C268.982 130.808 269.516 131.186 269.9 131.678C270.296 132.158 270.494 132.74 270.494 133.424V133.622C270.494 134.162 270.386 134.618 270.17 134.99C269.954 135.362 269.678 135.656 269.342 135.872C269.006 136.088 268.67 136.244 268.334 136.34V136.574C268.67 136.634 269.024 136.778 269.396 137.006C269.768 137.222 270.08 137.534 270.332 137.942C270.596 138.35 270.728 138.866 270.728 139.49V139.688C270.728 140.408 270.536 141.038 270.152 141.578C269.768 142.106 269.216 142.52 268.496 142.82C267.788 143.108 266.942 143.252 265.958 143.252ZM265.958 141.938C266.978 141.938 267.782 141.74 268.37 141.344C268.97 140.948 269.27 140.372 269.27 139.616V139.472C269.27 138.716 268.976 138.14 268.388 137.744C267.8 137.348 266.99 137.15 265.958 137.15C264.938 137.15 264.134 137.348 263.546 137.744C262.958 138.14 262.664 138.716 262.664 139.472V139.616C262.664 140.372 262.958 140.948 263.546 141.344C264.146 141.74 264.95 141.938 265.958 141.938ZM265.958 135.836C266.918 135.836 267.668 135.656 268.208 135.296C268.76 134.924 269.036 134.402 269.036 133.73V133.586C269.036 132.902 268.76 132.38 268.208 132.02C267.656 131.648 266.906 131.462 265.958 131.462C265.01 131.462 264.26 131.648 263.708 132.02C263.156 132.38 262.88 132.902 262.88 133.586V133.73C262.88 134.402 263.156 134.924 263.708 135.296C264.26 135.656 265.01 135.836 265.958 135.836ZM277.857 143.252C276.933 143.252 276.141 143.09 275.481 142.766C274.833 142.43 274.341 141.974 274.005 141.398C273.669 140.822 273.501 140.168 273.501 139.436H274.959C274.959 140.18 275.205 140.786 275.697 141.254C276.189 141.71 276.909 141.938 277.857 141.938C278.853 141.938 279.615 141.674 280.143 141.146C280.683 140.606 280.953 139.868 280.953 138.932V137.186H280.719C280.491 137.546 280.125 137.882 279.621 138.194C279.129 138.494 278.433 138.644 277.533 138.644C276.777 138.644 276.081 138.476 275.445 138.14C274.821 137.804 274.323 137.33 273.951 136.718C273.579 136.106 273.393 135.38 273.393 134.54V134.324C273.393 133.46 273.591 132.722 273.987 132.11C274.383 131.486 274.917 131.006 275.589 130.67C276.273 130.322 277.047 130.148 277.911 130.148C278.787 130.148 279.561 130.322 280.233 130.67C280.917 131.006 281.451 131.492 281.835 132.128C282.219 132.752 282.411 133.508 282.411 134.396V138.788C282.411 139.724 282.225 140.528 281.853 141.2C281.493 141.86 280.971 142.37 280.287 142.73C279.603 143.078 278.793 143.252 277.857 143.252ZM277.911 137.42C278.511 137.42 279.039 137.3 279.495 137.06C279.951 136.808 280.305 136.466 280.557 136.034C280.821 135.59 280.953 135.074 280.953 134.486V134.342C280.953 133.442 280.671 132.74 280.107 132.236C279.555 131.72 278.823 131.462 277.911 131.462C276.999 131.462 276.261 131.72 275.697 132.236C275.133 132.74 274.851 133.442 274.851 134.342V134.486C274.851 135.074 274.977 135.59 275.229 136.034C275.493 136.466 275.853 136.808 276.309 137.06C276.777 137.3 277.311 137.42 277.911 137.42Z" fill="white"/>
<path d="M55.12 181V171.2H57.36L59.964 180.258H60.146L62.75 171.2H64.99V181H63.856V171.97H63.66L61.07 181H59.04L56.45 171.97H56.254V181H55.12ZM68.3533 181V171.2H69.5293V181H68.3533ZM76.4332 181.196C75.2666 181.196 74.3379 180.86 73.6472 180.188C72.9566 179.507 72.6112 178.517 72.6112 177.22V174.98C72.6112 173.683 72.9566 172.698 73.6472 172.026C74.3379 171.345 75.2666 171.004 76.4332 171.004C77.5906 171.004 78.4772 171.326 79.0932 171.97C79.7186 172.614 80.0313 173.496 80.0313 174.616V174.686H78.8693V174.574C78.8693 173.837 78.6686 173.235 78.2673 172.768C77.8753 172.292 77.2639 172.054 76.4332 172.054C75.6026 172.054 74.9539 172.311 74.4872 172.824C74.0206 173.328 73.7872 174.037 73.7872 174.952V177.248C73.7872 178.163 74.0206 178.877 74.4872 179.39C74.9539 179.894 75.6026 180.146 76.4332 180.146C77.2639 180.146 77.8753 179.913 78.2673 179.446C78.6686 178.97 78.8693 178.363 78.8693 177.626V177.402H80.0313V177.584C80.0313 178.704 79.7186 179.586 79.0932 180.23C78.4772 180.874 77.5906 181.196 76.4332 181.196ZM82.9937 181V171.2H84.1697V175.554H88.7617V171.2H89.9377V181H88.7617V176.618H84.1697V181H82.9937ZM92.5312 181L95.5552 171.2H97.6272L100.651 181H99.4332L98.6772 178.522H94.5052L93.7492 181H92.5312ZM94.7992 177.458H98.3692L96.6892 171.914H96.4932L94.7992 177.458ZM103.24 181V171.2H109.274V172.264H104.416V175.54H108.882V176.604H104.416V179.936H109.344V181H103.24ZM112.248 181V171.2H113.424V179.936H118.38V181H112.248ZM128.606 181.196C127.896 181.196 127.262 181.07 126.702 180.818C126.142 180.566 125.698 180.188 125.372 179.684C125.054 179.171 124.896 178.531 124.896 177.766V177.472H126.058V177.766C126.058 178.578 126.296 179.185 126.772 179.586C127.248 179.978 127.859 180.174 128.606 180.174C129.371 180.174 129.954 180.001 130.356 179.656C130.757 179.311 130.958 178.877 130.958 178.354C130.958 177.99 130.864 177.701 130.678 177.486C130.5 177.271 130.248 177.099 129.922 176.968C129.595 176.828 129.212 176.707 128.774 176.604L128.046 176.422C127.476 176.273 126.972 176.091 126.534 175.876C126.095 175.661 125.75 175.381 125.498 175.036C125.255 174.681 125.134 174.229 125.134 173.678C125.134 173.127 125.269 172.651 125.54 172.25C125.82 171.849 126.207 171.541 126.702 171.326C127.206 171.111 127.784 171.004 128.438 171.004C129.1 171.004 129.693 171.121 130.216 171.354C130.748 171.578 131.163 171.914 131.462 172.362C131.77 172.801 131.924 173.356 131.924 174.028V174.616H130.762V174.028C130.762 173.552 130.659 173.169 130.454 172.88C130.258 172.591 129.982 172.376 129.628 172.236C129.282 172.096 128.886 172.026 128.438 172.026C127.794 172.026 127.276 172.171 126.884 172.46C126.492 172.74 126.296 173.141 126.296 173.664C126.296 174.009 126.38 174.289 126.548 174.504C126.716 174.719 126.954 174.896 127.262 175.036C127.57 175.167 127.938 175.283 128.368 175.386L129.096 175.568C129.665 175.689 130.174 175.857 130.622 176.072C131.079 176.277 131.443 176.562 131.714 176.926C131.984 177.281 132.12 177.747 132.12 178.326C132.12 178.905 131.975 179.409 131.686 179.838C131.396 180.267 130.986 180.603 130.454 180.846C129.931 181.079 129.315 181.196 128.606 181.196ZM138.592 181.196C137.425 181.196 136.496 180.86 135.806 180.188C135.115 179.507 134.77 178.517 134.77 177.22V174.98C134.77 173.683 135.115 172.698 135.806 172.026C136.496 171.345 137.425 171.004 138.592 171.004C139.749 171.004 140.636 171.326 141.252 171.97C141.877 172.614 142.19 173.496 142.19 174.616V174.686H141.028V174.574C141.028 173.837 140.827 173.235 140.426 172.768C140.034 172.292 139.422 172.054 138.592 172.054C137.761 172.054 137.112 172.311 136.646 172.824C136.179 173.328 135.946 174.037 135.946 174.952V177.248C135.946 178.163 136.179 178.877 136.646 179.39C137.112 179.894 137.761 180.146 138.592 180.146C139.422 180.146 140.034 179.913 140.426 179.446C140.827 178.97 141.028 178.363 141.028 177.626V177.402H142.19V177.584C142.19 178.704 141.877 179.586 141.252 180.23C140.636 180.874 139.749 181.196 138.592 181.196ZM148.708 181.196C147.541 181.196 146.608 180.86 145.908 180.188C145.217 179.507 144.872 178.517 144.872 177.22V174.98C144.872 173.683 145.217 172.698 145.908 172.026C146.608 171.345 147.541 171.004 148.708 171.004C149.884 171.004 150.817 171.345 151.508 172.026C152.208 172.698 152.558 173.683 152.558 174.98V177.22C152.558 178.517 152.208 179.507 151.508 180.188C150.817 180.86 149.884 181.196 148.708 181.196ZM148.708 180.146C149.557 180.146 150.215 179.894 150.682 179.39C151.149 178.877 151.382 178.167 151.382 177.262V174.938C151.382 174.033 151.149 173.328 150.682 172.824C150.215 172.311 149.557 172.054 148.708 172.054C147.868 172.054 147.215 172.311 146.748 172.824C146.281 173.328 146.048 174.033 146.048 174.938V177.262C146.048 178.167 146.281 178.877 146.748 179.39C147.215 179.894 147.868 180.146 148.708 180.146ZM157.608 181V172.264H154.458V171.2H161.934V172.264H158.784V181H157.608ZM166.958 181V172.264H163.808V171.2H171.284V172.264H168.134V181H166.958Z" fill="white"/>
<defs>
<linearGradient id="paint0_linear_243_1063" x1="501.6" y1="-3.7" x2="-3.04445" y2="289.379" gradientUnits="userSpaceOnUse">
<stop stop-color="#E4C628"/>
<stop offset="1" stop-color="#9E0F0F"/>
</linearGradient>
<linearGradient id="paint1_linear_243_1063" x1="445" y1="-11" x2="-8" y2="230" gradientUnits="userSpaceOnUse">
<stop stop-color="#00AA58"/>
<stop offset="1" stop-color="#008989"/>
</linearGradient>
<linearGradient id="paint2_linear_243_1063" x1="277" y1="63.2236" x2="37" y2="206.224" gradientUnits="userSpaceOnUse">
<stop stop-color="#D9D9D9"/>
<stop offset="1" stop-color="#D9D9D9" stop-opacity="0"/>
</linearGradient>
</defs>
</svg>
