<svg width="64" height="64" viewBox="0 0 64 64" fill="none" xmlns="http://www.w3.org/2000/svg">
<rect width="64" height="64" rx="32" fill="#F2F4F7"/>
<path d="M32.6667 19.9998H26.4C24.1598 19.9998 23.0397 19.9998 22.184 20.4358C21.4314 20.8193 20.8195 21.4312 20.436 22.1839C20 23.0395 20 24.1596 20 26.3998V37.5998C20 39.84 20 40.9602 20.436 41.8158C20.8195 42.5685 21.4314 43.1804 22.184 43.5639C23.0397 43.9998 24.1598 43.9998 26.4 43.9998H38.6667C39.9066 43.9998 40.5266 43.9998 41.0353 43.8635C42.4156 43.4937 43.4938 42.4155 43.8637 41.0351C44 40.5264 44 39.9065 44 38.6665M41.3333 26.6665V18.6665M37.3333 22.6665H45.3333M30 27.3332C30 28.8059 28.8061 29.9998 27.3333 29.9998C25.8606 29.9998 24.6667 28.8059 24.6667 27.3332C24.6667 25.8604 25.8606 24.6665 27.3333 24.6665C28.8061 24.6665 30 25.8604 30 27.3332ZM35.9867 31.8907L24.7082 42.1439C24.0738 42.7206 23.7566 43.009 23.7286 43.2588C23.7043 43.4753 23.7873 43.69 23.9509 43.8339C24.1397 43.9998 24.5684 43.9998 25.4257 43.9998H37.9413C39.8602 43.9998 40.8196 43.9998 41.5732 43.6775C42.5193 43.2728 43.2729 42.5191 43.6776 41.5731C44 40.8195 44 39.86 44 37.9411C44 37.2955 44 36.9727 43.9294 36.672C43.8407 36.2942 43.6706 35.9403 43.431 35.635C43.2403 35.3921 42.9883 35.1904 42.4841 34.7871L38.7544 31.8034C38.2499 31.3997 37.9976 31.1979 37.7197 31.1267C37.4748 31.0639 37.2172 31.072 36.9767 31.1501C36.7039 31.2387 36.4648 31.456 35.9867 31.8907Z" stroke="#475467" stroke-width="2.66667" stroke-linecap="round" stroke-linejoin="round"/>
</svg>
