<?xml version="1.0" standalone="no"?>
<!DOCTYPE svg PUBLIC "-//W3C//DTD SVG 20010904//EN"
 "http://www.w3.org/TR/2001/REC-SVG-20010904/DTD/svg10.dtd">
<svg version="1.0" xmlns="http://www.w3.org/2000/svg"
 width="512.000000pt" height="512.000000pt" viewBox="0 0 512.000000 512.000000"
 preserveAspectRatio="xMidYMid meet">

<g transform="translate(0.000000,512.000000) scale(0.100000,-0.100000)"
fill="#ffffff" stroke="none">
<path d="M2015 4774 c-275 -41 -516 -132 -727 -273 -375 -251 -623 -620 -719
-1071 -20 -89 -23 -136 -23 -315 -1 -180 2 -226 22 -323 72 -354 232 -645 494
-898 160 -153 447 -334 532 -334 77 0 146 69 146 145 0 67 -31 103 -139 158
-411 211 -684 579 -757 1022 -24 148 -15 404 20 541 118 471 445 832 898 992
374 132 814 90 1155 -112 118 -69 171 -110 266 -204 221 -217 356 -475 402
-770 9 -53 21 -109 27 -125 23 -59 102 -98 165 -82 15 3 44 23 65 44 36 36 38
42 38 99 0 140 -64 377 -151 562 -115 242 -322 490 -539 644 -113 81 -320 185
-446 226 -181 58 -271 72 -494 75 -113 2 -218 1 -235 -1z"/>
<path d="M2153 3959 c-52 -25 -83 -83 -83 -153 0 -40 -3 -49 -20 -53 -49 -13
-159 -74 -201 -111 -87 -78 -137 -215 -119 -328 25 -154 155 -264 390 -329
206 -57 267 -84 294 -128 16 -25 -11 -67 -60 -94 -48 -26 -165 -53 -234 -53
-46 0 -49 2 -55 30 -21 97 -151 146 -225 84 -17 -15 -37 -39 -45 -55 -32 -60
-8 -170 54 -248 37 -46 138 -101 188 -101 31 0 33 -2 33 -32 0 -78 68 -148
145 -148 84 0 145 70 145 166 0 48 2 52 26 58 57 15 157 72 205 118 31 30 62
73 81 115 28 58 32 79 32 149 0 68 -4 90 -27 137 -53 107 -170 188 -349 241
-49 14 -126 37 -172 51 -98 29 -152 70 -141 107 18 64 112 106 255 115 l85 5
21 -50 c27 -64 62 -87 130 -87 94 0 149 65 141 166 -11 128 -104 232 -235 259
-48 11 -52 14 -52 41 0 52 -36 108 -83 130 -54 24 -73 24 -124 -2z"/>
<path d="M3103 2901 c-123 -46 -211 -135 -252 -259 -20 -58 -21 -82 -21 -481
l0 -420 -104 63 c-121 74 -178 90 -285 84 -280 -16 -452 -317 -327 -572 32
-64 727 -858 791 -903 25 -17 70 -41 101 -53 55 -20 69 -21 568 -18 l511 3 60
29 c71 35 151 113 183 178 12 26 74 227 137 448 97 336 115 412 115 469 0 77
-24 168 -63 233 -50 87 -163 173 -267 206 -19 7 -147 25 -285 42 -137 16 -267
33 -287 36 l-38 6 0 292 c0 238 -3 303 -16 347 -32 109 -118 209 -222 257 -77
36 -221 42 -299 13z m170 -275 c18 -7 41 -23 52 -36 19 -21 20 -40 25 -394 5
-350 6 -373 25 -406 36 -61 52 -65 425 -110 190 -22 364 -48 388 -56 58 -22
94 -71 100 -137 3 -44 -14 -112 -103 -422 -59 -203 -113 -381 -122 -393 -31
-50 -51 -52 -500 -52 -251 0 -433 4 -454 10 -31 9 -89 70 -385 406 -192 218
-352 403 -356 412 -20 50 0 115 43 138 51 26 90 18 180 -38 331 -202 342 -208
378 -208 56 0 103 29 129 80 l22 44 0 547 0 547 26 31 c14 17 40 35 57 40 18
5 33 10 35 10 1 1 17 -5 35 -13z"/>
</g>
</svg>
