<?xml version="1.0" standalone="no"?>
<!DOCTYPE svg PUBLIC "-//W3C//DTD SVG 20010904//EN"
 "http://www.w3.org/TR/2001/REC-SVG-20010904/DTD/svg10.dtd">
<svg version="1.0" xmlns="http://www.w3.org/2000/svg"
 width="512.000000pt" height="512.000000pt" viewBox="0 0 512.000000 512.000000"
 preserveAspectRatio="xMidYMid meet">

<g transform="translate(0.000000,512.000000) scale(0.100000,-0.100000)"
fill="#ffffff" stroke="none">
<path d="M402 5100 c-95 -25 -173 -70 -243 -139 -70 -71 -114 -148 -139 -247
-19 -73 -20 -111 -20 -706 0 -610 1 -630 20 -668 13 -26 34 -47 60 -60 37 -19
58 -20 370 -20 l330 0 0 -1570 c0 -1555 0 -1571 20 -1610 22 -44 80 -80 128
-80 16 0 113 31 216 70 l186 70 186 -70 c103 -39 199 -70 214 -70 15 0 111 31
214 70 l186 70 186 -70 c103 -39 199 -70 214 -70 15 0 111 31 214 70 l186 70
186 -70 c103 -39 199 -70 214 -70 15 0 111 31 214 70 l186 70 186 -70 c103
-39 200 -70 216 -70 48 0 106 36 128 80 19 37 20 58 20 395 l0 355 85 39 c140
65 250 144 371 265 164 164 270 338 330 544 180 620 -114 1268 -701 1543 l-85
40 0 688 c0 653 -1 692 -20 765 -25 99 -68 174 -140 246 -72 72 -147 115 -246
140 -76 20 -113 20 -1738 19 -1606 0 -1663 -1 -1734 -19z m212 -292 c55 -16
138 -99 154 -154 9 -30 12 -184 12 -568 l0 -526 -240 0 -240 0 0 526 c0 384 3
538 12 568 15 51 99 137 148 153 48 15 105 15 154 1z m3200 0 c55 -16 138 -99
154 -154 9 -31 12 -208 12 -682 l0 -640 -98 5 c-425 24 -843 -179 -1104 -534
l-60 -83 -610 0 c-590 0 -610 -1 -648 -20 -45 -23 -80 -80 -80 -130 0 -50 35
-107 80 -130 38 -19 58 -20 581 -20 l542 0 -6 -27 c-4 -16 -13 -59 -21 -98 -9
-38 -16 -83 -16 -100 0 -16 -3 -40 -6 -52 l-6 -23 -515 0 c-495 0 -515 -1
-553 -20 -45 -23 -80 -80 -80 -130 0 -50 35 -107 80 -130 38 -19 58 -20 563
-20 l525 0 21 -85 c19 -74 36 -126 66 -197 7 -17 -24 -18 -564 -18 -553 0
-573 -1 -611 -20 -45 -23 -80 -80 -80 -130 0 -50 35 -107 80 -130 38 -19 58
-20 675 -20 412 0 643 4 655 10 16 9 26 3 62 -37 161 -176 351 -304 554 -372
154 -51 243 -65 416 -66 l158 0 0 -192 c0 -106 -2 -193 -4 -193 -2 0 -51 18
-110 40 -58 22 -119 40 -135 40 -15 0 -112 -31 -214 -70 l-186 -70 -186 70
c-102 39 -198 70 -214 70 -15 0 -112 -31 -214 -70 l-186 -70 -186 70 c-102 39
-198 70 -214 70 -15 0 -112 -31 -214 -70 l-186 -70 -186 70 c-102 39 -198 70
-214 70 -15 0 -76 -18 -135 -40 -58 -22 -108 -40 -111 -40 -3 0 -6 973 -7
2163 l-3 2162 -22 55 c-13 30 -23 58 -23 63 0 4 617 7 1371 7 1048 0 1381 -3
1413 -12z m248 -1797 c183 -47 330 -132 464 -265 101 -102 177 -216 224 -339
53 -136 64 -198 64 -362 0 -164 -11 -226 -64 -362 -95 -247 -316 -468 -563
-563 -133 -52 -199 -64 -357 -64 -159 -1 -234 12 -369 64 -245 95 -466 316
-561 563 -53 136 -64 198 -64 362 0 164 11 226 64 362 95 247 316 468 561 563
65 25 141 45 239 64 59 11 287 -3 362 -23z"/>
<path d="M1458 4499 c-43 -22 -78 -81 -78 -129 0 -50 35 -107 80 -130 38 -19
58 -20 675 -20 617 0 637 1 675 20 45 23 80 80 80 130 0 50 -35 107 -80 130
-38 19 -57 20 -677 20 -615 -1 -639 -2 -675 -21z"/>
<path d="M3268 4499 c-43 -22 -78 -81 -78 -129 0 -50 35 -107 80 -130 33 -17
59 -20 165 -20 106 0 132 3 165 20 45 23 80 80 80 130 0 50 -35 107 -80 130
-33 17 -58 20 -167 20 -108 -1 -134 -4 -165 -21z"/>
<path d="M1458 3899 c-43 -22 -78 -81 -78 -129 0 -50 35 -107 80 -130 38 -19
58 -20 675 -20 617 0 637 1 675 20 45 23 80 80 80 130 0 50 -35 107 -80 130
-38 19 -57 20 -677 20 -615 -1 -639 -2 -675 -21z"/>
<path d="M3268 3899 c-43 -22 -78 -81 -78 -129 0 -50 35 -107 80 -130 33 -17
59 -20 165 -20 106 0 132 3 165 20 45 23 80 80 80 130 0 50 -35 107 -80 130
-33 17 -58 20 -167 20 -108 -1 -134 -4 -165 -21z"/>
<path d="M1458 3299 c-43 -22 -78 -81 -78 -129 0 -50 35 -107 80 -130 38 -19
58 -20 675 -20 617 0 637 1 675 20 45 23 80 80 80 130 0 50 -35 107 -80 130
-38 19 -57 20 -677 20 -615 -1 -639 -2 -675 -21z"/>
<path d="M3760 2773 c-40 -21 -80 -75 -80 -109 0 -17 -12 -30 -44 -49 -58 -34
-132 -114 -159 -173 -18 -38 -22 -66 -22 -147 0 -88 3 -107 27 -157 41 -89 96
-135 248 -212 74 -38 143 -75 153 -84 10 -9 17 -29 17 -48 0 -54 -25 -64 -160
-64 -132 0 -170 -13 -208 -70 -32 -48 -28 -137 9 -176 31 -34 71 -54 106 -54
23 -1 32 -8 48 -42 11 -23 32 -51 46 -61 38 -28 106 -32 149 -10 40 21 80 75
80 109 0 17 12 30 44 49 58 34 132 114 159 173 18 38 22 66 22 147 0 88 -3
107 -27 157 -42 90 -98 138 -250 214 -73 36 -141 73 -150 82 -10 8 -18 29 -18
48 0 54 25 64 160 64 132 0 170 13 208 70 32 48 28 137 -9 176 -31 34 -71 54
-106 54 -23 1 -32 8 -48 42 -11 23 -32 51 -46 61 -38 28 -106 32 -149 10z"/>
</g>
</svg>
