<?xml version="1.0" encoding="utf-8"?>
<!-- Svg Vector Icons : http://www.onlinewebfonts.com/icon -->
<!DOCTYPE svg PUBLIC "-//W3C//DTD SVG 1.1//EN" "http://www.w3.org/Graphics/SVG/1.1/DTD/svg11.dtd">
<svg version="1.1" xmlns="http://www.w3.org/2000/svg" xmlns:xlink="http://www.w3.org/1999/xlink" x="0px" y="0px" viewBox="0 0 256 256" enable-background="new 0 0 256 256" xml:space="preserve">
<metadata> Svg Vector Icons : http://www.onlinewebfonts.com/icon </metadata>
<g><g><path fill="#000000" d="M114.2,35.2L90.1,22.6c0,0-33.6,13.7-52.7,39.5c-18.3,24.7-22,61.2-26.4,79.1c-2.2,8.9,0,19.9,0,20.4c0,27.2,0,71.9,0,71.9h92.3v-92.3H50.5c0,0-5.5-24.6,13.2-52.7C76.6,69.1,114.2,35.2,114.2,35.2z M195.5,88.5C208.4,69.1,246,35.2,246,35.2l-24.1-12.7c0,0-33.6,13.7-52.7,39.5c-18.3,24.7-22,61.2-26.4,79.1c-2.2,8.9,0,19.9,0,20.4c0,27.2,0,71.9,0,71.9h92.3v-92.3h-52.7C182.4,141.2,176.8,116.6,195.5,88.5z"/></g></g>
</svg>