<svg width="562" height="457" viewBox="0 0 562 457" fill="none" xmlns="http://www.w3.org/2000/svg">
<mask id="mask0_66_898" style="mask-type:luminance" maskUnits="userSpaceOnUse" x="260" y="159" width="302" height="298">
<path d="M260.155 159.587H562V457H260.155V159.587Z" fill="white"/>
</mask>
<g mask="url(#mask0_66_898)">
<path fill-rule="evenodd" clip-rule="evenodd" d="M499.843 160.902L380.415 280.215L260.979 399.459L318.394 456.819H562V222.999L499.843 160.902Z" fill="#0060CC"/>
</g>
<mask id="mask1_66_898" style="mask-type:luminance" maskUnits="userSpaceOnUse" x="386" y="0" width="171" height="162">
<path d="M386.012 0H556.403V161.522H386.012V0Z" fill="white"/>
</mask>
<g mask="url(#mask1_66_898)">
<mask id="mask2_66_898" style="mask-type:luminance" maskUnits="userSpaceOnUse" x="-1392" y="-711" width="3347" height="1881">
<path d="M1954.38 -710.889H-1391.48V1169.34H1954.38V-710.889Z" fill="black" fill-opacity="0.72"/>
</mask>
<g mask="url(#mask2_66_898)">
<mask id="mask3_66_898" style="mask-type:luminance" maskUnits="userSpaceOnUse" x="386" y="-1" width="171" height="163">
<path d="M556.403 -0.967285H386.012V161.522H556.403V-0.967285Z" fill="white"/>
</mask>
<g mask="url(#mask3_66_898)">
<mask id="mask4_66_898" style="mask-type:luminance" maskUnits="userSpaceOnUse" x="387" y="0" width="164" height="162">
<path d="M387.948 0.113281H550.594V161.212H387.948V0.113281Z" fill="white"/>
</mask>
<g mask="url(#mask4_66_898)">
<path fill-rule="evenodd" clip-rule="evenodd" d="M469.914 0.536377L389.832 80.5416L429.873 120.62L469.914 160.622L550.072 80.5416L509.955 40.539L469.914 0.536377Z" fill="#0060CC"/>
</g>
</g>
</g>
</g>
<mask id="mask5_66_898" style="mask-type:luminance" maskUnits="userSpaceOnUse" x="399" y="12" width="163" height="324">
<path d="M399.566 12.5732H562V335.617H399.566V12.5732Z" fill="white"/>
</mask>
<g mask="url(#mask5_66_898)">
<mask id="mask6_66_898" style="mask-type:luminance" maskUnits="userSpaceOnUse" x="-1392" y="-711" width="3347" height="1881">
<path d="M1954.38 -710.889H-1391.48V1169.34H1954.38V-710.889Z" fill="black" fill-opacity="0.72"/>
</mask>
<g mask="url(#mask6_66_898)">
<mask id="mask7_66_898" style="mask-type:luminance" maskUnits="userSpaceOnUse" x="399" y="12" width="164" height="324">
<path d="M562.212 12.5732H399.566V335.617H562.212V12.5732Z" fill="white"/>
</mask>
<g mask="url(#mask7_66_898)">
<mask id="mask8_66_898" style="mask-type:luminance" maskUnits="userSpaceOnUse" x="401" y="14" width="161" height="318">
<path d="M401.502 14.5076H562V331.748H401.502V14.5076Z" fill="white"/>
</mask>
<g mask="url(#mask8_66_898)">
<path fill-rule="evenodd" clip-rule="evenodd" d="M559.905 14.8928L480.866 93.8553L401.759 172.818L559.905 330.811L562 328.725V16.9859L559.905 14.8928Z" fill="#0099FF"/>
</g>
</g>
</g>
</g>
<mask id="mask9_66_898" style="mask-type:luminance" maskUnits="userSpaceOnUse" x="0" y="111" width="474" height="346">
<path d="M0 111.227H473.144V457H0V111.227Z" fill="white"/>
</mask>
<g mask="url(#mask9_66_898)">
<mask id="mask10_66_898" style="mask-type:luminance" maskUnits="userSpaceOnUse" x="-1392" y="-711" width="3347" height="1881">
<path d="M1954.38 -710.889H-1391.48V1169.34H1954.38V-710.889Z" fill="black" fill-opacity="0.72"/>
</mask>
<g mask="url(#mask10_66_898)">
<mask id="mask11_66_898" style="mask-type:luminance" maskUnits="userSpaceOnUse" x="-2" y="111" width="476" height="347">
<path d="M473.144 111.227H-1.24023V457.483H473.144V111.227Z" fill="white"/>
</mask>
<g mask="url(#mask11_66_898)">
<mask id="mask12_66_898" style="mask-type:luminance" maskUnits="userSpaceOnUse" x="0" y="113" width="472" height="344">
<path d="M0.000244141 113.162H471.208V457H0.000244141V113.162Z" fill="white"/>
</mask>
<g mask="url(#mask12_66_898)">
<path fill-rule="evenodd" clip-rule="evenodd" d="M235.589 114L117.832 231.643L0.0759277 349.354L107.644 456.818H363.533L471.102 349.354L353.345 231.643L235.589 114Z" fill="#0055FF"/>
</g>
</g>
</g>
</g>
<mask id="mask13_66_898" style="mask-type:luminance" maskUnits="userSpaceOnUse" x="134" y="333" width="249" height="124">
<path d="M134.298 333.683H382.139V457H134.298V333.683Z" fill="white"/>
</mask>
<g mask="url(#mask13_66_898)">
<mask id="mask14_66_898" style="mask-type:luminance" maskUnits="userSpaceOnUse" x="-1392" y="-711" width="3347" height="1881">
<path d="M1954.38 -710.889H-1391.48V1169.34H1954.38V-710.889Z" fill="black" fill-opacity="0.72"/>
</mask>
<g mask="url(#mask14_66_898)">
<mask id="mask15_66_898" style="mask-type:luminance" maskUnits="userSpaceOnUse" x="134" y="333" width="249" height="125">
<path d="M382.139 333.683H134.298V457.484H382.139V333.683Z" fill="white"/>
</mask>
<g mask="url(#mask15_66_898)">
<mask id="mask16_66_898" style="mask-type:luminance" maskUnits="userSpaceOnUse" x="140" y="335" width="241" height="122">
<path d="M140.107 335.617H380.899V457H140.107V335.617Z" fill="white"/>
</mask>
<g mask="url(#mask16_66_898)">
<path fill-rule="evenodd" clip-rule="evenodd" d="M260.7 337.363L175.807 422.181L141.135 456.819H380.271L260.7 337.363Z" fill="#0099FF"/>
</g>
</g>
</g>
</g>
</svg>
