<svg width="29" height="31" viewBox="0 0 29 31" fill="none" xmlns="http://www.w3.org/2000/svg">
<path d="M12.2578 2.04697C11.4891 2.87979 10.2719 3.32822 8.67032 3.32822C6.17188 3.32822 4.25001 4.99385 4.25001 7.23604C4.25001 7.8126 3.54532 8.58135 2.71251 8.96572C0.726568 9.8626 0.0218808 12.0407 1.11094 13.9626C1.75157 15.1798 1.75157 15.8204 1.11094 17.0376C0.0218808 18.9595 0.726568 21.1376 2.71251 22.0345C3.54532 22.4188 4.25001 23.1876 4.25001 23.7642C4.25001 25.9423 6.17188 27.672 8.47813 27.672C9.75938 27.672 11.4891 28.2485 12.5781 29.0813L14.5 30.4907L16.4219 29.0813C17.5109 28.2485 19.2406 27.672 20.5219 27.672C22.8281 27.672 24.75 25.9423 24.75 23.7642C24.75 23.1876 25.4547 22.4188 26.3516 22.0345C28.2094 21.2017 29.1063 18.447 27.9531 17.1017C27.3125 16.3329 27.3125 15.7563 27.9531 14.2829C28.9141 11.9126 28.2734 9.8626 26.2875 8.96572C25.4547 8.58135 24.75 7.8126 24.75 7.23604C24.75 5.05791 22.8281 3.32822 20.5219 3.32822C19.1766 3.32822 17.5109 2.75166 16.6141 2.04697C15.7172 1.34229 14.6281 0.765724 14.1797 0.765724C13.7953 0.765724 12.8984 1.34229 12.2578 2.04697ZM19.625 11.7845C19.625 13.0657 14.2438 21.2657 13.3469 21.2657C12.3859 21.2657 9.43907 18.0626 9.375 16.9735C9.375 15.5642 10.7203 15.372 12.0016 16.5251C13.4109 17.8063 13.1547 17.9985 15.9094 13.5782C16.6781 12.361 17.575 11.1438 17.9594 10.8876C18.7281 10.3751 19.625 10.8235 19.625 11.7845Z" fill="#0007FF"/>
</svg>
