<svg width="117" height="117" viewBox="23 14 71 71" fill="none" xmlns="http://www.w3.org/2000/svg"><g filter="url(#filter0_d_418_2751)">
<rect x="23" y="14" width="71" height="71" rx="19.5347" fill="#14073D"/>
</g>
<path d="M58.9013 55.2355C52.7642 57.4694 47.098 59.1219 42.9954 59.9598C39.2213 60.729 36.7694 60.8112 36.4828 60.0235C36.2063 59.2643 37.9912 57.8298 41.1519 56.0851C41.467 55.9109 41.6463 55.5606 41.5977 55.2053C41.596 55.1986 41.596 55.1919 41.5943 55.1869C41.5139 54.5936 40.8804 54.2517 40.3441 54.5148C32.1909 58.5085 27.1381 62.1552 27.8017 63.9753C28.4788 65.8389 34.988 65.3176 44.1501 62.9949C44.4836 62.9111 44.8355 63.025 45.0483 63.2948C49.3738 68.7482 56.8584 71.0911 63.758 68.5789C72.4794 65.4048 74.5173 59.0481 74.7201 54.3439C74.8357 51.634 73.9475 49.7586 58.9013 55.2355Z" fill="#007FFF"/>
<path d="M88.3452 41.9391C87.6514 40.0353 80.8908 40.6185 71.4354 43.062C67.1703 37.2935 59.4695 34.7546 52.3855 37.3338C45.0736 39.9951 42.5313 45.0982 41.7436 49.2695C41.1972 52.1721 41.6514 54.7698 56.7345 49.2812C62.7777 47.0808 68.3601 45.4468 72.4476 44.5988C76.329 43.7893 78.863 43.6904 79.1546 44.4932C79.411 45.1954 77.901 46.4741 75.1693 48.0461C74.5643 48.3947 74.2576 49.0935 74.3934 49.7789C74.395 49.7907 74.3967 49.8007 74.4001 49.8125C74.6045 50.8666 75.7676 51.423 76.7279 50.942C84.3348 47.1294 88.9803 43.6887 88.3452 41.9391Z" fill="#007FFF"/>
<mask id="mask0_418_2751" style="mask-type:luminance" maskUnits="userSpaceOnUse" x="74" y="28" width="14" height="12">
<path d="M74.7385 28.23H87.6094V39.3847H74.7385V28.23Z" fill="white"/>
</mask>
<g mask="url(#mask0_418_2751)">
<mask id="mask1_418_2751" style="mask-type:luminance" maskUnits="userSpaceOnUse" x="73" y="26" width="15" height="15">
<path d="M75.9399 26.8289L87.3561 28.7964L85.3886 40.2109L73.9724 38.2434L75.9399 26.8289Z" fill="white"/>
</mask>
<g mask="url(#mask1_418_2751)">
<mask id="mask2_418_2751" style="mask-type:luminance" maskUnits="userSpaceOnUse" x="73" y="26" width="15" height="15">
<path d="M75.9399 26.8289L87.3561 28.7964L85.3886 40.2109L73.9724 38.2434L75.9399 26.8289Z" fill="white"/>
</mask>
<g mask="url(#mask2_418_2751)">
<path d="M86.2051 28.597C84.2846 28.2669 81.4791 29.14 79.3574 31.1075L77.9212 30.8612C76.8855 30.6818 76.1565 31.3539 75.6068 32.1013L74.8694 33.1035L77.4586 33.5493L79.6842 36.7L79.2368 39.2892L80.4283 38.9289C81.3165 38.6608 82.193 38.1999 82.3724 37.1642L82.6187 35.728C85.1828 34.3872 86.9459 32.0376 87.2777 30.1154L87.5006 28.8199L86.2051 28.597ZM83.4533 30.8913C83.9477 30.9768 84.2795 31.4461 84.1941 31.9421C84.1086 32.4365 83.6393 32.7683 83.1433 32.6829C82.6489 32.5974 82.3171 32.1281 82.4025 31.6321C82.488 31.1377 82.9573 30.8059 83.4533 30.8913ZM76.7011 35.2637L76.1766 35.6341C75.4174 36.1704 74.8945 37.7206 74.8945 37.7206C74.8945 37.7206 76.4464 37.8044 77.2894 37.2095L77.8139 36.8391L76.7011 35.2637Z" fill="#FFAA00"/>
</g>
</g>
</g>
<defs>
<filter id="filter0_d_418_2751" x="0.801495" y="0.680897" width="115.397" height="115.397" filterUnits="userSpaceOnUse" color-interpolation-filters="sRGB">
<feFlood flood-opacity="0" result="BackgroundImageFix"/>
<feColorMatrix in="SourceAlpha" type="matrix" values="0 0 0 0 0 0 0 0 0 0 0 0 0 0 0 0 0 0 127 0" result="hardAlpha"/>
<feOffset dy="8.8794"/>
<feGaussianBlur stdDeviation="11.0993"/>
<feColorMatrix type="matrix" values="0 0 0 0 0.858333 0 0 0 0 0.284504 0 0 0 0 0.12875 0 0 0 0.2 0"/>
<feBlend mode="normal" in2="BackgroundImageFix" result="effect1_dropShadow_418_2751"/>
<feBlend mode="normal" in="SourceGraphic" in2="effect1_dropShadow_418_2751" result="shape"/>
</filter>
</defs>
</svg>
