<svg width="90" height="62" viewBox="0 0 90 62" fill="none" xmlns="http://www.w3.org/2000/svg">
<path d="M45.9807 39.8527C36.9239 43.1494 28.5621 45.588 22.5078 46.8246C16.9382 47.9598 13.32 48.0809 12.8971 46.9185C12.489 45.7982 15.1229 43.6812 19.7873 41.1066C20.2523 40.8494 20.5169 40.3325 20.4452 39.8082C20.4427 39.7983 20.4427 39.7884 20.4402 39.781C20.3215 38.9055 19.3867 38.4009 18.5953 38.7892C6.56328 44.6828 -0.89333 50.0644 0.086046 52.7503C1.08521 55.5004 10.691 54.7313 24.2118 51.3035C24.704 51.1798 25.2234 51.348 25.5374 51.7462C31.9207 59.7939 42.9659 63.2514 53.1479 59.5441C66.0183 54.8599 69.0257 45.4792 69.3249 38.537C69.4956 34.5379 68.1848 31.7704 45.9807 39.8527Z" fill="#007FFF"/>
<path d="M89.4318 20.2306C88.4079 17.4211 78.4312 18.2817 64.4775 21.8876C58.1833 13.375 46.8191 9.62811 36.365 13.4343C25.5746 17.3617 21.8228 24.8925 20.6604 31.0482C19.8541 35.3318 20.5243 39.1652 42.7829 31.0655C51.7011 27.8183 59.9393 25.4069 65.9713 24.1555C71.6992 22.961 75.4386 22.8151 75.8689 23.9997C76.2473 25.036 74.019 26.923 69.9878 29.2428C69.0949 29.7572 68.6423 30.7886 68.8427 31.8001C68.8451 31.8174 68.8476 31.8322 68.8526 31.8495C69.1543 33.4052 70.8707 34.2263 72.2878 33.5165C83.5135 27.89 90.3691 22.8126 89.4318 20.2306Z" fill="#007FFF"/>
<mask id="mask0_603_2750" style="mask-type:luminance" maskUnits="userSpaceOnUse" x="69" y="0" width="20" height="17">
<path d="M69.3522 0H88.3461V16.4614H69.3522V0Z" fill="white"/>
</mask>
<g mask="url(#mask0_603_2750)">
<mask id="mask1_603_2750" style="mask-type:luminance" maskUnits="userSpaceOnUse" x="68" y="-3" width="20" height="21">
<path d="M71.1254 -2.06763L87.9727 0.835875L85.0692 17.6806L68.2219 14.7771L71.1254 -2.06763Z" fill="white"/>
</mask>
<g mask="url(#mask1_603_2750)">
<mask id="mask2_603_2750" style="mask-type:luminance" maskUnits="userSpaceOnUse" x="68" y="-3" width="20" height="21">
<path d="M71.1254 -2.06763L87.9727 0.835875L85.0692 17.6806L68.2219 14.7771L71.1254 -2.06763Z" fill="white"/>
</mask>
<g mask="url(#mask2_603_2750)">
<path d="M86.2736 0.541596C83.4393 0.0543815 79.2992 1.3429 76.1682 4.24641L74.0487 3.88285C72.5203 3.61822 71.4444 4.60996 70.6332 5.713L69.545 7.19195L73.3661 7.84981L76.6505 12.4994L75.9901 16.3204L77.7486 15.7887C79.0593 15.393 80.3528 14.7129 80.6174 13.1844L80.981 11.0649C84.7649 9.0864 87.3667 5.61901 87.8564 2.78229L88.1853 0.870528L86.2736 0.541596ZM82.2126 3.92737C82.9422 4.0535 83.4319 4.74599 83.3058 5.47804C83.1796 6.20763 82.4871 6.69732 81.7551 6.57119C81.0255 6.44505 80.5358 5.75257 80.6619 5.02051C80.7881 4.29092 81.4806 3.80123 82.2126 3.92737ZM72.2482 10.3799L71.4741 10.9264C70.3538 11.7179 69.5821 14.0055 69.5821 14.0055C69.5821 14.0055 71.8723 14.1292 73.1163 13.2512L73.8904 12.7046L72.2482 10.3799Z" fill="#FFAA00"/>
</g>
</g>
</g>
</svg>
