<svg width="463" height="316" viewBox="0 0 463 316" fill="none" xmlns="http://www.w3.org/2000/svg">
<path d="M237.345 205.713C190.595 222.73 147.433 235.318 116.182 241.701C87.4323 247.56 68.7555 248.186 66.5725 242.186C64.4661 236.403 78.062 225.475 102.139 212.185C104.539 210.858 105.905 208.19 105.535 205.483C105.522 205.432 105.522 205.381 105.509 205.343C104.896 200.824 100.071 198.219 95.9856 200.224C33.8786 230.645 -4.61122 258.424 0.444155 272.288C5.60166 286.484 55.1852 282.514 124.977 264.82C127.518 264.182 130.199 265.05 131.82 267.105C164.769 308.646 221.783 326.493 274.341 307.357C340.775 283.178 356.299 234.756 357.844 198.921C358.725 178.279 351.959 163.993 237.345 205.713Z" fill="white"/>
<path d="M461.633 104.427C456.348 89.9247 404.849 94.3673 332.823 112.98C300.333 69.0394 241.673 49.6987 187.711 69.3458C132.012 89.6183 112.646 128.491 106.646 160.266C102.484 182.377 105.944 202.164 220.839 160.355C266.873 143.593 309.397 131.146 340.534 124.687C370.1 118.521 389.402 117.768 391.624 123.883C393.577 129.232 382.074 138.972 361.266 150.947C356.657 153.602 354.321 158.925 355.355 164.147C355.368 164.236 355.381 164.313 355.406 164.402C356.964 172.432 365.823 176.67 373.138 173.006C431.084 143.964 466.471 117.755 461.633 104.427Z" fill="white"/>
<mask id="mask0_454_2754" style="mask-type:luminance" maskUnits="userSpaceOnUse" x="357" y="0" width="100" height="85">
<path d="M357.985 0H456.028V84.9711H357.985V0Z" fill="white"/>
</mask>
<g mask="url(#mask0_454_2754)">
<mask id="mask1_454_2754" style="mask-type:luminance" maskUnits="userSpaceOnUse" x="352" y="-11" width="103" height="103">
<path d="M367.138 -10.6727L454.1 4.31466L439.113 91.2645L352.15 76.2771L367.138 -10.6727Z" fill="white"/>
</mask>
<g mask="url(#mask1_454_2754)">
<mask id="mask2_454_2754" style="mask-type:luminance" maskUnits="userSpaceOnUse" x="352" y="-11" width="103" height="103">
<path d="M367.138 -10.6727L454.1 4.31466L439.113 91.2645L352.15 76.2771L367.138 -10.6727Z" fill="white"/>
</mask>
<g mask="url(#mask2_454_2754)">
<path d="M445.33 2.79556C430.7 0.280642 409.33 6.93178 393.168 21.9192L382.227 20.0426C374.338 18.6766 368.785 23.7958 364.597 29.4895L358.98 37.1236L378.704 40.5194L395.657 64.5196L392.249 84.2432L401.325 81.4985C408.091 79.456 414.768 75.9453 416.134 68.0558L418.011 57.1153C437.543 46.9024 450.973 29.0044 453.5 14.3616L455.198 4.49345L445.33 2.79556ZM424.368 20.2723C428.134 20.9234 430.662 24.4979 430.011 28.2767C429.36 32.0427 425.785 34.5704 422.006 33.9193C418.24 33.2682 415.713 29.6937 416.364 25.915C417.015 22.149 420.589 19.6213 424.368 20.2723ZM372.934 53.5791L368.938 56.4004C363.155 60.4855 359.172 72.2942 359.172 72.2942C359.172 72.2942 370.993 72.9325 377.414 68.4005L381.41 65.5792L372.934 53.5791Z" fill="#FFAA00"/>
</g>
</g>
</g>
</svg>
