<svg width="90" height="62" viewBox="0 0 90 62" fill="none" xmlns="http://www.w3.org/2000/svg">
<path d="M45.9807 39.8527C36.9239 43.1494 28.5621 45.588 22.5078 46.8246C16.9382 47.9598 13.32 48.0809 12.8971 46.9185C12.489 45.7982 15.1229 43.6812 19.7873 41.1066C20.2523 40.8494 20.5169 40.3325 20.4452 39.8082C20.4427 39.7983 20.4427 39.7884 20.4402 39.781C20.3215 38.9055 19.3867 38.4009 18.5953 38.7892C6.56328 44.6828 -0.89333 50.0644 0.086046 52.7503C1.08521 55.5004 10.691 54.7313 24.2118 51.3035C24.704 51.1798 25.2234 51.348 25.5374 51.7462C31.9207 59.7939 42.9659 63.2514 53.1479 59.5441C66.0183 54.8599 69.0257 45.4792 69.3249 38.537C69.4956 34.5379 68.1848 31.7704 45.9807 39.8527Z" fill="#007FFF"/>
<path d="M89.4319 20.2306C88.408 17.4211 78.4313 18.2817 64.4776 21.8876C58.1834 13.375 46.8192 9.62811 36.3651 13.4343C25.5747 17.3617 21.8229 24.8925 20.6605 31.0482C19.8542 35.3318 20.5245 39.1652 42.783 31.0655C51.7013 27.8183 59.9394 25.4069 65.9714 24.1555C71.6993 22.961 75.4387 22.8151 75.8691 23.9997C76.2475 25.036 74.0191 26.923 69.9879 29.2428C69.0951 29.7572 68.6425 30.7886 68.8428 31.8001C68.8453 31.8174 68.8477 31.8322 68.8527 31.8495C69.1544 33.4052 70.8708 34.2263 72.2879 33.5165C83.5136 27.89 90.3693 22.8126 89.4319 20.2306Z" fill="#007FFF"/>
<mask id="mask0_146_1066" style="mask-type:luminance" maskUnits="userSpaceOnUse" x="69" y="0" width="20" height="17">
<path d="M69.3525 0H88.3465V16.4614H69.3525V0Z" fill="white"/>
</mask>
<g mask="url(#mask0_146_1066)">
<mask id="mask1_146_1066" style="mask-type:luminance" maskUnits="userSpaceOnUse" x="68" y="-3" width="20" height="21">
<path d="M71.1262 -2.06763L87.9734 0.835875L85.0699 17.6806L68.2227 14.7771L71.1262 -2.06763Z" fill="white"/>
</mask>
<g mask="url(#mask1_146_1066)">
<mask id="mask2_146_1066" style="mask-type:luminance" maskUnits="userSpaceOnUse" x="68" y="-3" width="20" height="21">
<path d="M71.1262 -2.06763L87.9734 0.835875L85.0699 17.6806L68.2227 14.7771L71.1262 -2.06763Z" fill="white"/>
</mask>
<g mask="url(#mask2_146_1066)">
<path d="M86.2744 0.541596C83.4402 0.0543815 79.3001 1.3429 76.169 4.24641L74.0495 3.88285C72.5211 3.61822 71.4453 4.60996 70.6341 5.713L69.5459 7.19195L73.3669 7.84981L76.6513 12.4994L75.991 16.3204L77.7494 15.7887C79.0602 15.393 80.3537 14.7129 80.6183 13.1844L80.9818 11.0649C84.7658 9.0864 87.3676 5.61901 87.8573 2.78229L88.1862 0.870528L86.2744 0.541596ZM82.2135 3.92737C82.9431 4.0535 83.4328 4.74599 83.3066 5.47804C83.1805 6.20763 82.488 6.69732 81.7559 6.57119C81.0264 6.44505 80.5367 5.75257 80.6628 5.02051C80.7889 4.29092 81.4814 3.80123 82.2135 3.92737ZM72.2491 10.3799L71.475 10.9264C70.3546 11.7179 69.583 14.0055 69.583 14.0055C69.583 14.0055 71.8732 14.1292 73.1172 13.2512L73.8913 12.7046L72.2491 10.3799Z" fill="#FFAA00"/>
</g>
</g>
</g>
</svg>
